<svg width="36" height="41" viewBox="0 0 36 41" fill="none" xmlns="http://www.w3.org/2000/svg">
<path d="M26.6088 30.9912C26.1768 30.9912 25.8262 31.3418 25.8262 31.7738C25.8262 32.2058 26.1768 32.5564 26.6088 32.5564C27.0408 32.5564 27.3914 32.2058 27.3914 31.7738C27.3914 31.3418 27.0408 30.9912 26.6088 30.9912Z" fill="url(#paint0_linear_428_1363)"/>
<path d="M28.5356 28.4606L24.8159 27.2209L23.4805 24.5501C24.6836 23.3257 25.5188 21.7055 25.8005 20.0156L25.967 19.0174H27.3913C28.6859 19.0174 29.7391 17.9642 29.7391 16.6696V11.7391C29.7391 5.26617 24.473 0 18 0C11.5105 0 6.26087 5.25107 6.26087 11.7391V16.6696C6.26087 17.6898 6.91521 18.5597 7.82609 18.8828V19.8C7.82609 21.0946 8.87932 22.1478 10.1739 22.1478H10.8612C11.2005 22.8848 11.6396 23.5674 12.1739 24.1806C12.2848 24.308 12.4004 24.4315 12.5188 24.5516L11.1841 27.2209L7.46429 28.4607C3.1392 29.9029 0 34.456 0 39.287C0 39.7192 0.350374 40.0696 0.782609 40.0696H35.2174C35.6495 40.0696 36 39.7192 36 39.287C36 34.456 32.8609 29.9029 28.5356 28.4606ZM28.1739 16.6696C28.1739 17.1011 27.8228 17.4522 27.3913 17.4522H26.1969C26.3958 15.9112 26.5284 14.2714 26.5817 12.6563C26.5833 12.6108 26.5845 12.5665 26.5859 12.5217H28.1739V16.6696ZM8.6087 17.4522C8.17717 17.4522 7.82609 17.1011 7.82609 16.6696V12.5217H9.41463C9.41721 12.6034 9.41995 12.6854 9.423 12.7679C9.42308 12.7708 9.42323 12.7735 9.42331 12.7763C9.42331 12.7766 9.42331 12.7768 9.42331 12.777C9.4781 14.3479 9.60895 15.9451 9.80335 17.4521H8.6087V17.4522ZM10.1739 20.5826C9.74238 20.5826 9.3913 20.2315 9.3913 19.8V19.0174H10.0329L10.1994 20.0159C10.2312 20.2057 10.2703 20.3948 10.3154 20.5826H10.1739ZM9.39263 10.9565H7.85583C8.25222 5.7114 12.6295 1.56522 18 1.56522C23.3466 1.56522 27.7432 5.71085 28.1441 10.9565H26.6074C26.5511 6.63441 23.0315 3.13043 18.7005 3.13043H17.2996C12.9688 3.13043 9.4489 6.63441 9.39263 10.9565ZM17.2996 4.69565H18.7004C22.2072 4.69565 25.0455 7.56399 25.0435 11.0669C25.0435 11.3132 25.0415 11.5276 25.0374 11.7227C25.0374 11.7252 25.0373 11.7278 25.0373 11.7304L24.0584 11.5905C21.3991 11.2108 18.8882 9.95533 16.9882 8.05531C16.8413 7.90857 16.6423 7.82609 16.4348 7.82609C14.333 7.82609 12.3211 8.78369 10.9911 10.4015C11.3189 7.21479 14.0128 4.69565 17.2996 4.69565ZM11.9379 20.5826C11.5461 19.2793 11.0979 15.4445 10.9988 12.9872L12.0521 11.5827C13.0195 10.2933 14.5245 9.4921 16.1255 9.40015C18.232 11.4049 20.9572 12.7287 23.8371 13.1399L24.9892 13.3046C24.9122 14.9391 24.7549 16.5793 24.5294 18.0877C24.5293 18.0882 24.5292 18.0887 24.5291 18.0893C24.4575 18.5743 24.401 18.8864 24.2566 19.7581C23.8422 22.2441 21.9872 24.4921 19.5385 25.1044C18.5308 25.356 17.4691 25.3559 16.4619 25.1044C14.9329 24.7221 13.5309 23.6642 12.6261 22.1478H14.2216C14.5446 23.0587 15.4145 23.713 16.4348 23.713H18C19.2972 23.713 20.3478 22.6625 20.3478 21.3652C20.3478 20.0706 19.2946 19.0174 18 19.0174H16.4348C15.3918 19.0174 14.5348 19.6911 14.2202 20.5826H11.9379ZM16.369 26.6882C16.9058 26.8013 17.453 26.8591 18 26.8591C18.4282 26.8591 18.8564 26.8233 19.2798 26.7538L17.8969 28.2163L16.369 26.6882ZM16.821 29.354L14.3387 31.979C13.6553 30.671 13.0682 29.3096 12.5865 27.916L13.5187 26.0516L16.821 29.354ZM22.3486 25.7865L23.4133 27.9159C22.9309 29.3119 22.3436 30.6737 21.6609 31.9802L19.0041 29.3234L22.3486 25.7865ZM15.6522 21.3652C15.6522 20.9331 16.0026 20.5826 16.4348 20.5826H18C18.4315 20.5826 18.7826 20.9337 18.7826 21.3652C18.7826 21.7974 18.4321 22.1478 18 22.1478H16.4348C16.0033 22.1478 15.6522 21.7967 15.6522 21.3652ZM1.59652 38.5043C1.90667 34.6274 4.48685 31.1035 7.95929 29.9455L11.2536 28.8477C11.8571 30.5166 12.6049 32.1387 13.4811 33.6795C13.4826 33.6821 13.484 33.6848 13.4855 33.6874L13.4856 33.6875C14.1259 34.8136 14.8465 35.9141 15.6278 36.9588L16.5905 38.5043H1.59652ZM18 37.8067L16.9386 36.1028C16.9267 36.0837 16.9141 36.0651 16.9006 36.0471C16.2668 35.2017 15.6757 34.3176 15.1372 33.4127L17.9282 30.4612L20.8691 33.4021C20.3271 34.3136 19.7339 35.2013 19.0996 36.047C19.0612 36.0981 19.1156 36.0175 18 37.8067ZM19.4095 38.5043L20.3722 36.9589C21.1569 35.9102 21.8827 34.8009 22.5293 33.6616C22.5333 33.6547 22.5369 33.6476 22.5409 33.6407C22.5413 33.6399 22.5418 33.6391 22.5423 33.6382C23.4074 32.1122 24.1473 30.5041 24.7464 28.8477L28.0406 29.9455C31.5131 31.1035 34.0933 34.6274 34.4035 38.5043H19.4095Z" fill="url(#paint1_linear_428_1363)"/>
<path d="M32.0515 35.3369C31.5285 34.29 30.7624 33.3599 29.836 32.6473C29.4934 32.3836 29.0021 32.4477 28.7385 32.7904C28.475 33.133 28.5391 33.6243 28.8816 33.8879C29.6215 34.4571 30.2333 35.2 30.6512 36.0364C30.8447 36.4237 31.3151 36.5796 31.701 36.3868C32.0876 36.1936 32.2446 35.7236 32.0515 35.3369Z" fill="url(#paint2_linear_428_1363)"/>
<defs>
<linearGradient id="paint0_linear_428_1363" x1="26.6088" y1="30.9912" x2="26.6088" y2="32.5564" gradientUnits="userSpaceOnUse">
<stop stop-color="#3D34BE"/>
<stop offset="1" stop-color="#5147DD"/>
</linearGradient>
<linearGradient id="paint1_linear_428_1363" x1="18" y1="0" x2="18" y2="40.0696" gradientUnits="userSpaceOnUse">
<stop stop-color="#3D34BE"/>
<stop offset="1" stop-color="#5147DD"/>
</linearGradient>
<linearGradient id="paint2_linear_428_1363" x1="30.3551" y1="32.4849" x2="30.3551" y2="36.4694" gradientUnits="userSpaceOnUse">
<stop stop-color="#3D34BE"/>
<stop offset="1" stop-color="#5147DD"/>
</linearGradient>
</defs>
</svg>
