<svg width="44" height="45" viewBox="0 0 44 45" fill="none" xmlns="http://www.w3.org/2000/svg">
<path d="M2.27441 24.021C2.27441 25.5029 3.48008 26.7085 4.96184 26.7085C6.44359 26.7085 7.64926 25.5028 7.64926 24.021C7.64926 23.822 7.62684 23.6281 7.5856 23.4414L11.4466 21.5076C11.9399 22.0791 12.6685 22.4417 13.4807 22.4417C15.5656 22.4417 16.8574 20.1582 15.786 18.3747L20.624 13.5284C21.7334 14.1923 23.1714 13.9734 24.0339 12.9742L27.8949 14.908C27.5227 16.5942 28.8143 18.1751 30.5187 18.1751C32.8428 18.1751 34.072 15.4055 32.5085 13.6832L38.1407 5.22047C39.8917 5.84235 41.7252 4.53283 41.7252 2.68751C41.7251 1.20567 40.5195 0 39.0377 0C37.5558 0 36.3502 1.20567 36.3502 2.68742C36.3502 3.38128 36.6146 4.01463 37.0479 4.49194L31.4157 12.9546C30.3836 12.588 29.2195 12.8829 28.4846 13.7343L24.6236 11.8005C24.6648 11.6137 24.6873 11.4199 24.6873 11.2209C24.6873 9.73903 23.4816 8.53345 21.9998 8.53345C19.9158 8.53345 18.6228 10.8164 19.6946 12.6005L14.8566 17.4467C12.8537 16.2481 10.3476 18.0266 10.8572 20.3339L6.99612 22.2677C5.37689 20.392 2.27441 21.5333 2.27441 24.021ZM39.0377 1.31346C39.7953 1.31346 40.4116 1.92982 40.4116 2.68742C40.4116 3.44502 39.7953 4.06139 39.0377 4.06139C38.2801 4.06139 37.6637 3.44502 37.6637 2.68742C37.6637 1.92982 38.28 1.31346 39.0377 1.31346ZM30.5187 14.1136C31.2763 14.1136 31.8927 14.73 31.8927 15.4876C31.8927 16.2452 31.2763 16.8616 30.5187 16.8616C29.7611 16.8616 29.1448 16.2452 29.1448 15.4876C29.1448 14.73 29.7611 14.1136 30.5187 14.1136ZM21.9997 9.84691C22.7573 9.84691 23.3737 10.4633 23.3737 11.2209C23.3737 11.9785 22.7573 12.5948 21.9997 12.5948C21.2421 12.5948 20.6258 11.9785 20.6258 11.2209C20.6258 10.4633 21.2421 9.84691 21.9997 9.84691ZM13.4807 18.3803C14.2383 18.3803 14.8547 18.9966 14.8547 19.7542C14.8547 20.5118 14.2383 21.1282 13.4807 21.1282C12.7231 21.1282 12.1068 20.5118 12.1068 19.7542C12.1068 18.9966 12.7231 18.3803 13.4807 18.3803ZM4.96184 25.3951C4.20423 25.3951 3.58787 24.7787 3.58787 24.0211C3.58787 23.2635 4.20423 22.6472 4.96184 22.6472C5.71944 22.6472 6.3358 23.2635 6.3358 24.0211C6.3358 24.7787 5.71953 25.3951 4.96184 25.3951Z" fill="url(#paint0_linear_428_1395)"/>
<path d="M43.2522 43.5191H42.4395V29.0879C42.4395 28.7252 42.1455 28.4312 41.7828 28.4312C41.42 28.4312 41.126 28.7252 41.126 29.0879V43.5191H36.9484V10.8008H41.126V26.0233C41.126 26.3861 41.42 26.68 41.7828 26.68C42.1455 26.68 42.4395 26.3861 42.4395 26.0233V10.6932C42.4395 10.0283 41.8984 9.4873 41.2336 9.4873H36.841C36.176 9.4873 35.6351 10.0284 35.6351 10.6932V43.5191H33.9206V23.5533C33.9206 22.8883 33.3796 22.3474 32.7147 22.3474H32.0508C31.688 22.3474 31.3941 22.6413 31.3941 23.0041C31.3941 23.3669 31.688 23.6608 32.0508 23.6608H32.6072V43.5191H28.4297V23.6608H28.9861C29.3489 23.6608 29.6428 23.3669 29.6428 23.0041C29.6428 22.6413 29.3489 22.3474 28.9861 22.3474H28.3221C27.6571 22.3474 27.1162 22.8884 27.1162 23.5533V43.5191H25.4017V19.2494C25.4017 18.5844 24.8607 18.0435 24.1958 18.0435H19.8033C19.1383 18.0435 18.5974 18.5845 18.5974 19.2494V43.5191H16.8829V27.82C16.8829 27.1551 16.3419 26.6141 15.677 26.6141H11.2844C10.6195 26.6141 10.0785 27.1551 10.0785 27.82V43.5191H8.36401V32.0867C8.36401 31.4217 7.82304 30.8808 7.15817 30.8808H2.76518C2.10022 30.8808 1.55925 31.4218 1.55925 32.0867V43.5191H0.746573C0.383796 43.5191 0.0898438 43.813 0.0898438 44.1758C0.0898438 44.5386 0.383796 44.8325 0.746573 44.8325H43.2523C43.615 44.8325 43.909 44.5386 43.909 44.1758C43.909 43.813 43.6149 43.5191 43.2522 43.5191ZM2.87271 43.5191V32.1943H7.05021V43.5191H2.87271ZM11.3916 43.5191V27.9275H15.5692V43.5191H11.3916ZM19.9106 43.5191V19.357H24.0881V43.5191H19.9106Z" fill="url(#paint1_linear_428_1395)"/>
<defs>
<linearGradient id="paint0_linear_428_1395" x1="21.9998" y1="0" x2="21.9998" y2="26.7085" gradientUnits="userSpaceOnUse">
<stop stop-color="#3D34BE"/>
<stop offset="1" stop-color="#5147DD"/>
</linearGradient>
<linearGradient id="paint1_linear_428_1395" x1="21.9994" y1="9.4873" x2="21.9994" y2="44.8325" gradientUnits="userSpaceOnUse">
<stop stop-color="#3D34BE"/>
<stop offset="1" stop-color="#5147DD"/>
</linearGradient>
</defs>
</svg>
