<svg width="48" height="45" viewBox="0 0 48 45" fill="none" xmlns="http://www.w3.org/2000/svg">
<path d="M47.1628 37.8329H46.0038V13.1558C46.0038 10.6333 43.9515 8.58105 41.429 8.58105H36.2186C35.8318 8.58105 35.5184 8.89444 35.5184 9.2812C35.5184 9.66796 35.8318 9.98135 36.2186 9.98135H41.429C43.1794 9.98135 44.6035 11.4054 44.6035 13.1558V37.8329H28.9526C28.4749 37.8329 28.0291 38.0687 27.7604 38.4636L27.5505 38.7722C27.3554 39.0588 27.0319 39.23 26.6851 39.23H21.2211C20.8743 39.23 20.5508 39.0588 20.3557 38.7722L20.1458 38.4637C19.8772 38.0688 19.4315 37.8329 18.9536 37.8329H3.39613V13.1558C3.39613 11.4054 4.82022 9.98135 6.57068 9.98135H11.08C11.4667 9.98135 11.7801 9.66796 11.7801 9.2812C11.7801 8.89444 11.4667 8.58105 11.08 8.58105H6.57068C4.0482 8.58105 1.99584 10.6332 1.99584 13.1558V37.8329H0.836864C0.450104 37.8329 0.136719 38.1463 0.136719 38.5331V39.9908C0.136719 42.6262 2.28084 44.7703 4.91628 44.7703H43.0833C45.7188 44.7703 47.8629 42.6262 47.8629 39.9908V38.5331C47.8629 38.1463 47.5495 37.8329 47.1628 37.8329ZM46.4626 39.9908C46.4626 41.8541 44.9467 43.3701 43.0833 43.3701H4.91628C3.05296 43.3701 1.53701 41.8541 1.53701 39.9908V39.2332H18.9536C18.9675 39.2332 18.9803 39.2399 18.9882 39.2514L19.1981 39.56C19.6542 40.2301 20.4104 40.6302 21.2211 40.6302H26.6851C27.4958 40.6302 28.2519 40.2301 28.7081 39.56L28.918 39.2514L28.9181 39.2513C28.9259 39.2399 28.9387 39.2332 28.9525 39.2332H46.4625V39.9908H46.4626Z" fill="url(#paint0_linear_428_1389)"/>
<path d="M4.9834 35.5459C4.9834 35.9327 5.29678 36.2461 5.68354 36.2461H42.3166C42.7034 36.2461 43.0168 35.9327 43.0168 35.5459V13.1559C43.0168 12.2805 42.3046 11.5684 41.4292 11.5684H36.2188C35.8321 11.5684 35.5187 11.8817 35.5187 12.2685C35.5187 12.6553 35.8321 12.9686 36.2188 12.9686H41.4292C41.5325 12.9686 41.6165 13.0526 41.6165 13.1559V34.8458H31.4601V31.9871C31.4601 30.4669 30.868 29.0376 29.7931 27.9626L28.8815 27.051C29.2049 26.5495 29.4553 25.9928 29.6138 25.3927C29.7124 25.0188 29.4893 24.6358 29.1154 24.537C28.7414 24.4386 28.3586 24.6614 28.2598 25.0353C28.0975 25.65 27.8089 26.2052 27.4268 26.677C27.424 26.6804 27.4212 26.6837 27.4185 26.6869C26.6007 27.6908 25.3576 28.3132 24.0001 28.3132C21.5707 28.3132 19.5941 26.3367 19.5941 23.9073C19.5941 21.4778 21.5707 19.5013 24.0001 19.5013C25.8748 19.5013 27.5474 20.6911 28.1623 22.462C28.2891 22.8272 28.6875 23.0206 29.0534 22.8937C29.4187 22.7669 29.6119 22.368 29.4851 22.0027C28.6748 19.6689 26.4706 18.101 24.0001 18.101C20.7985 18.101 18.1938 20.7056 18.1938 23.9073C18.1938 25.0643 18.5353 26.1424 19.1209 27.0488L18.2071 27.9626C17.132 29.0377 16.5401 30.4669 16.5401 31.9871V34.8458H6.38369V32.2807C6.38369 31.8939 6.0703 31.5806 5.68354 31.5806C5.29678 31.5806 4.9834 31.8939 4.9834 32.2807V35.5459ZM17.9404 31.987C17.9404 30.8408 18.3868 29.7633 19.1974 28.9527L20.0206 28.1294C21.0608 29.1104 22.461 29.7134 24.0001 29.7134C25.5199 29.7134 26.9305 29.1209 27.9817 28.1315L28.8029 28.9526C29.6135 29.7632 30.0599 30.8407 30.0599 31.9869V34.8456H17.9404V31.987Z" fill="url(#paint1_linear_428_1389)"/>
<path d="M5.68354 29.9945C6.0703 29.9945 6.38369 29.6811 6.38369 29.2944V13.1559C6.38369 13.0527 6.46761 12.9686 6.57086 12.9686H11.0803C11.467 12.9686 11.7804 12.6553 11.7804 12.2685C11.7804 11.8817 11.467 11.5684 11.0803 11.5684H6.57086C5.69549 11.5684 4.9834 12.2805 4.9834 13.1559V29.2944C4.9834 29.681 5.29678 29.9945 5.68354 29.9945Z" fill="url(#paint2_linear_428_1389)"/>
<path d="M16.2243 16.6214H31.0746C32.753 16.6214 34.1183 15.256 34.1183 13.5777V3.04376C34.1183 1.36538 32.7529 0 31.0746 0H16.2243C14.5459 0 13.1807 1.36547 13.1807 3.04376V4.51006C13.1807 4.89682 13.494 5.2102 13.8808 5.2102C14.2676 5.2102 14.581 4.89682 14.581 4.51006V3.04376C14.581 2.1375 15.3182 1.40029 16.2243 1.40029H31.0746C31.9808 1.40029 32.718 2.1375 32.718 3.04376V13.5777C32.718 14.4839 31.9808 15.2211 31.0746 15.2211H16.2243C15.3182 15.2211 14.581 14.4839 14.581 13.5777V7.49632C14.581 7.10956 14.2676 6.79617 13.8808 6.79617C13.494 6.79617 13.1807 7.10956 13.1807 7.49632V13.5777C13.1807 15.256 14.546 16.6214 16.2243 16.6214Z" fill="url(#paint3_linear_428_1389)"/>
<path d="M21.7804 12.6503C22.0949 12.6503 22.4093 12.5663 22.6952 12.3983L27.0017 9.86808C27.5598 9.54004 27.893 8.9578 27.893 8.3104C27.893 7.66299 27.5598 7.08075 27.0017 6.7529L22.6951 4.22267C22.1297 3.89043 21.4521 3.8865 20.8828 4.2124C20.3134 4.5382 19.9736 5.12436 19.9736 5.78026V10.8407C19.9736 11.4966 20.3135 12.0829 20.8828 12.4087C21.1643 12.5697 21.4724 12.6503 21.7804 12.6503ZM21.3738 5.78016C21.3738 5.5676 21.5168 5.46286 21.5782 5.42766C21.6152 5.40647 21.6891 5.37249 21.7822 5.37249C21.8434 5.37249 21.9129 5.38724 21.9858 5.43L26.2923 7.96023C26.4732 8.06646 26.4926 8.24047 26.4926 8.3103C26.4926 8.38022 26.4731 8.55423 26.2922 8.66056L21.9858 11.1908C21.8024 11.2985 21.6398 11.2282 21.5784 11.1931C21.5168 11.1579 21.3739 11.0531 21.3739 10.8405V5.78016H21.3738Z" fill="url(#paint4_linear_428_1389)"/>
<defs>
<linearGradient id="paint0_linear_428_1389" x1="23.9998" y1="8.58105" x2="23.9998" y2="44.7703" gradientUnits="userSpaceOnUse">
<stop stop-color="#3D34BE"/>
<stop offset="1" stop-color="#5147DD"/>
</linearGradient>
<linearGradient id="paint1_linear_428_1389" x1="24.0001" y1="11.5684" x2="24.0001" y2="36.2461" gradientUnits="userSpaceOnUse">
<stop stop-color="#3D34BE"/>
<stop offset="1" stop-color="#5147DD"/>
</linearGradient>
<linearGradient id="paint2_linear_428_1389" x1="8.3819" y1="11.5684" x2="8.3819" y2="29.9945" gradientUnits="userSpaceOnUse">
<stop stop-color="#3D34BE"/>
<stop offset="1" stop-color="#5147DD"/>
</linearGradient>
<linearGradient id="paint3_linear_428_1389" x1="23.6495" y1="0" x2="23.6495" y2="16.6214" gradientUnits="userSpaceOnUse">
<stop stop-color="#3D34BE"/>
<stop offset="1" stop-color="#5147DD"/>
</linearGradient>
<linearGradient id="paint4_linear_428_1389" x1="23.9333" y1="3.9707" x2="23.9333" y2="12.6503" gradientUnits="userSpaceOnUse">
<stop stop-color="#3D34BE"/>
<stop offset="1" stop-color="#5147DD"/>
</linearGradient>
</defs>
</svg>
