<svg width="36" height="36" viewBox="0 0 36 36" fill="none" xmlns="http://www.w3.org/2000/svg">
<path d="M16.1996 27.5994H2.39989V16.1996H23.3994C23.5586 16.1996 23.7112 16.1364 23.8237 16.0239C23.9362 15.9113 23.9994 15.7587 23.9994 15.5996V10.7997C23.9994 10.6406 23.9362 10.488 23.8237 10.3755C23.7112 10.2629 23.5586 10.1997 23.3994 10.1997H6.4996L22.8595 5.81562C23.013 5.77441 23.144 5.67392 23.2235 5.53621C23.3031 5.39851 23.3247 5.23486 23.2836 5.08123L22.0429 0.444529C22.0017 0.290936 21.9012 0.159983 21.7635 0.0804441C21.6258 0.000904878 21.4621 -0.0207139 21.3085 0.0203383L0.444529 5.61102C0.290936 5.65222 0.159983 5.75272 0.0804441 5.89042C0.000904878 6.02812 -0.0207139 6.19177 0.0203383 6.3454C0.0203383 6.3454 1.19991 10.7895 1.19991 10.7997C1.19995 10.9588 1.26318 11.1114 1.37571 11.2239L5.15143 14.9996H2.39989V14.3996C2.39989 14.2405 2.33667 14.0879 2.22416 13.9754C2.11164 13.8629 1.95903 13.7996 1.7999 13.7996C1.64077 13.7996 1.48817 13.8629 1.37565 13.9754C1.26313 14.0879 1.19991 14.2405 1.19991 14.3996V28.1993C1.19991 28.3585 1.26313 28.5111 1.37565 28.6236C1.48817 28.7361 1.64077 28.7993 1.7999 28.7993H16.1996C16.3587 28.7993 16.5113 28.7361 16.6238 28.6236C16.7364 28.5111 16.7996 28.3585 16.7996 28.1993C16.7996 28.0402 16.7364 27.8876 16.6238 27.7751C16.5113 27.6626 16.3587 27.5994 16.1996 27.5994ZM17.7512 14.9996H15.248L11.6481 11.3997H14.1512L17.7512 14.9996ZM15.848 11.3997H18.3511L21.9511 14.9996H19.4479L15.848 11.3997ZM13.5513 14.9996H11.0481L7.44818 11.3997H9.95133L13.5513 14.9996ZM22.7995 14.1512L20.0479 11.3997H22.7995V14.1512ZM13.6196 7.05039L11.2023 7.69838L13.7456 3.28907L16.1624 2.63988L13.6196 7.05039ZM17.8022 2.20189L20.2195 1.55451L17.6738 5.96321L15.2564 6.6112L17.8022 2.20189ZM9.56074 8.13757L7.14279 8.78555L9.68853 4.37625L12.1059 3.72826L9.56074 8.13757ZM5.50362 9.22474L3.08627 9.87213L5.63202 5.46282L8.04877 4.81544L5.50362 9.22474ZM19.3135 5.52402L21.2587 2.15449L21.9709 4.81244L19.3135 5.52402ZM3.99225 5.90201L2.0465 9.27214L1.33491 6.6142L3.99225 5.90201ZM3.24827 11.3997H5.75142L9.35134 14.9996H6.84819L3.24827 11.3997Z" fill="white"/>
<path d="M16.4677 21.0593L10.4678 18.0594C10.3761 18.0135 10.2741 17.992 10.1717 17.9967C10.0693 18.0015 9.96978 18.0324 9.88271 18.0866C9.79564 18.1408 9.7239 18.2163 9.67434 18.3061C9.62478 18.3959 9.59906 18.4968 9.59962 18.5994V24.5992C9.59906 24.7018 9.62478 24.8027 9.67434 24.8925C9.7239 24.9823 9.79564 25.0578 9.88271 25.112C9.96978 25.1662 10.0693 25.1971 10.1717 25.2019C10.2741 25.2066 10.3761 25.1851 10.4678 25.1392L16.4677 22.1393C16.5675 22.0895 16.6515 22.0129 16.7102 21.9181C16.7689 21.8232 16.8 21.7139 16.8 21.6023C16.8 21.4907 16.7689 21.3814 16.7102 21.2865C16.6515 21.1917 16.5675 21.1151 16.4677 21.0653V21.0593ZM10.7996 23.6285V19.5701L14.8579 21.5993L10.7996 23.6285Z" fill="white"/>
<path d="M33.5997 33.5994C34.2362 33.5994 34.8466 33.3466 35.2967 32.8965C35.7468 32.4464 35.9996 31.836 35.9996 31.1995C35.9996 31.0403 35.9364 30.8877 35.8239 30.7752C35.7114 30.6627 35.5588 30.5995 35.3996 30.5995C35.2405 30.5995 35.0879 30.6627 34.9754 30.7752C34.8629 30.8877 34.7996 31.0403 34.7996 31.1995C34.7996 31.5177 34.6732 31.8229 34.4482 32.048C34.2231 32.273 33.9179 32.3994 33.5997 32.3994H20.3999C20.0817 32.3994 19.7765 32.273 19.5514 32.048C19.3264 31.8229 19.2 31.5177 19.2 31.1995V25.1996C19.2 25.0405 19.1368 24.8879 19.0242 24.7753C18.9117 24.6628 18.7591 24.5996 18.6 24.5996C18.4409 24.5996 18.2883 24.6628 18.1757 24.7753C18.0632 24.8879 18 25.0405 18 25.1996V31.1995C18 31.836 18.2529 32.4464 18.7029 32.8965C19.153 33.3466 19.7634 33.5994 20.3999 33.5994H23.3999V34.7994H19.2C19.0408 34.7994 18.8882 34.8626 18.7757 34.9751C18.6632 35.0876 18.6 35.2403 18.6 35.3994C18.6 35.5585 18.6632 35.7111 18.7757 35.8236C18.8882 35.9362 19.0408 35.9994 19.2 35.9994H34.7996C34.9588 35.9994 35.1114 35.9362 35.2239 35.8236C35.3364 35.7111 35.3996 35.5585 35.3996 35.3994C35.3996 35.2403 35.3364 35.0876 35.2239 34.9751C35.1114 34.8626 34.9588 34.7994 34.7996 34.7994H30.5997V33.5994H33.5997ZM29.3998 34.7994H24.5999V33.5994H29.3998V34.7994Z" fill="white"/>
<path d="M33.5997 20.3997H32.3997C32.0814 20.3997 31.7762 20.2733 31.5512 20.0483C31.3261 19.8232 31.1997 19.518 31.1997 19.1998C31.1997 18.5632 30.9469 17.9528 30.4968 17.5027C30.0467 17.0527 29.4363 16.7998 28.7998 16.7998H25.1998C24.5633 16.7998 23.9529 17.0527 23.5028 17.5027C23.0528 17.9528 22.7999 18.5632 22.7999 19.1998C22.7999 19.518 22.6735 19.8232 22.4484 20.0483C22.2234 20.2733 21.9182 20.3997 21.5999 20.3997H20.3999C19.7634 20.3997 19.153 20.6526 18.7029 21.1027C18.2529 21.5527 18 22.1632 18 22.7997C18 22.9588 18.0632 23.1114 18.1757 23.2239C18.2883 23.3365 18.4409 23.3997 18.6 23.3997C18.7591 23.3997 18.9117 23.3365 19.0242 23.2239C19.1368 23.1114 19.2 22.9588 19.2 22.7997C19.2 22.4814 19.3264 22.1762 19.5514 21.9512C19.7765 21.7261 20.0817 21.5997 20.3999 21.5997H21.5999C22.2364 21.5997 22.8469 21.3469 23.2969 20.8968C23.747 20.4467 23.9999 19.8363 23.9999 19.1998C23.9999 18.8815 24.1263 18.5763 24.3513 18.3512C24.5764 18.1262 24.8816 17.9998 25.1998 17.9998H28.7998C29.118 17.9998 29.4232 18.1262 29.6483 18.3512C29.8733 18.5763 29.9997 18.8815 29.9997 19.1998C29.9997 19.8363 30.2526 20.4467 30.7027 20.8968C31.1528 21.3469 31.7632 21.5997 32.3997 21.5997H33.5997C33.9179 21.5997 34.2231 21.7261 34.4482 21.9512C34.6732 22.1762 34.7996 22.4814 34.7996 22.7997V28.7996C34.7996 28.9587 34.8629 29.1113 34.9754 29.2238C35.0879 29.3363 35.2405 29.3995 35.3996 29.3995C35.5588 29.3995 35.7114 29.3363 35.8239 29.2238C35.9364 29.1113 35.9996 28.9587 35.9996 28.7996V22.7997C35.9996 22.1632 35.7468 21.5527 35.2967 21.1027C34.8466 20.6526 34.2362 20.3997 33.5997 20.3997Z" fill="white"/>
<path d="M22.7998 26.9992C22.7998 27.8299 23.0461 28.6419 23.5076 29.3326C23.9691 30.0232 24.625 30.5616 25.3925 30.8794C26.1599 31.1973 27.0044 31.2805 27.8191 31.1184C28.6338 30.9564 29.3821 30.5564 29.9695 29.969C30.5569 29.3816 30.9569 28.6333 31.1189 27.8186C31.281 27.0039 31.1978 26.1594 30.8799 25.392C30.562 24.6246 30.0237 23.9686 29.3331 23.5071C28.6424 23.0456 27.8304 22.7993 26.9997 22.7993C25.8862 22.8006 24.8187 23.2435 24.0313 24.0308C23.244 24.8182 22.8011 25.8857 22.7998 26.9992ZM26.9997 23.9993C27.593 23.9993 28.1731 24.1752 28.6664 24.5049C29.1597 24.8345 29.5442 25.303 29.7713 25.8512C29.9984 26.3994 30.0578 27.0026 29.942 27.5845C29.8263 28.1664 29.5405 28.701 29.121 29.1205C28.7014 29.5401 28.1669 29.8258 27.585 29.9415C27.003 30.0573 26.3999 29.9979 25.8517 29.7708C25.3035 29.5437 24.835 29.1592 24.5054 28.6659C24.1757 28.1726 23.9998 27.5926 23.9998 26.9992C24.0007 26.2039 24.3171 25.4414 24.8795 24.879C25.4419 24.3166 26.2044 24.0002 26.9997 23.9993Z" fill="white"/>
<path d="M26.9992 28.7991C27.3552 28.7991 27.7032 28.6936 27.9992 28.4958C28.2952 28.298 28.5259 28.0169 28.6621 27.688C28.7984 27.3591 28.834 26.9972 28.7646 26.648C28.6951 26.2989 28.5237 25.9781 28.2719 25.7264C28.0202 25.4747 27.6995 25.3033 27.3503 25.2338C27.0012 25.1644 26.6393 25.2 26.3104 25.3362C25.9815 25.4725 25.7004 25.7032 25.5026 25.9992C25.3048 26.2952 25.1992 26.6432 25.1992 26.9992C25.1992 27.4766 25.3889 27.9344 25.7264 28.2719C26.064 28.6095 26.5218 28.7991 26.9992 28.7991ZM26.9992 26.3992C27.1178 26.3992 27.2338 26.4344 27.3325 26.5003C27.4312 26.5662 27.5081 26.6599 27.5535 26.7696C27.5989 26.8792 27.6108 26.9998 27.5876 27.1162C27.5645 27.2326 27.5073 27.3395 27.4234 27.4234C27.3395 27.5073 27.2326 27.5645 27.1162 27.5876C26.9998 27.6108 26.8792 27.5989 26.7696 27.5535C26.6599 27.5081 26.5662 27.4312 26.5003 27.3325C26.4344 27.2338 26.3992 27.1178 26.3992 26.9992C26.3992 26.8401 26.4624 26.6874 26.5749 26.5749C26.6874 26.4624 26.8401 26.3992 26.9992 26.3992Z" fill="white"/>
<path d="M28.1992 20.3992C28.3583 20.3992 28.5109 20.336 28.6234 20.2235C28.7359 20.1109 28.7991 19.9583 28.7991 19.7992C28.7991 19.6401 28.7359 19.4875 28.6234 19.375C28.5109 19.2624 28.3583 19.1992 28.1992 19.1992H25.7992C25.6401 19.1992 25.4875 19.2624 25.375 19.375C25.2624 19.4875 25.1992 19.6401 25.1992 19.7992C25.1992 19.9583 25.2624 20.1109 25.375 20.2235C25.4875 20.336 25.6401 20.3992 25.7992 20.3992H28.1992Z" fill="white"/>
<path d="M21.599 31.199C21.9304 31.199 22.199 30.9304 22.199 30.599C22.199 30.2676 21.9304 29.999 21.599 29.999C21.2676 29.999 20.999 30.2676 20.999 30.599C20.999 30.9304 21.2676 31.199 21.599 31.199Z" fill="white"/>
<path d="M27.5998 11.9994H31.1997C31.5476 11.9987 31.8879 11.8972 32.1794 11.7071C32.4708 11.517 32.7009 11.2465 32.8419 10.9284L34.6538 11.3814C34.7423 11.4036 34.8346 11.4053 34.9239 11.3864C35.0131 11.3675 35.0968 11.3285 35.1687 11.2724C35.2406 11.2163 35.2988 11.1445 35.3388 11.0626C35.3788 10.9806 35.3996 10.8906 35.3996 10.7994V7.19949C35.3996 7.10828 35.3788 7.01828 35.3388 6.93632C35.2988 6.85437 35.2406 6.7826 35.1687 6.7265C35.0968 6.67039 35.0131 6.63141 34.9239 6.61252C34.8346 6.59363 34.7423 6.59534 34.6538 6.6175L32.8419 7.07049C32.7009 6.75235 32.4708 6.48188 32.1794 6.2918C31.8879 6.10173 31.5476 6.0002 31.1997 5.99951H27.5998C27.1224 5.99951 26.6646 6.18915 26.327 6.52671C25.9894 6.86427 25.7998 7.32209 25.7998 7.79947V10.1994C25.7998 10.6768 25.9894 11.1346 26.327 11.4722C26.6646 11.8097 27.1224 11.9994 27.5998 11.9994ZM34.1996 10.0308L32.9997 9.73083V8.26806L34.1996 7.96807V10.0308ZM26.9998 7.79947C26.9998 7.64035 27.063 7.48774 27.1755 7.37522C27.288 7.2627 27.4406 7.19949 27.5998 7.19949H31.1997C31.3588 7.19949 31.5114 7.2627 31.6239 7.37522C31.7365 7.48774 31.7997 7.64035 31.7997 7.79947V10.1994C31.7997 10.3585 31.7365 10.5112 31.6239 10.6237C31.5114 10.7362 31.3588 10.7994 31.1997 10.7994H27.5998C27.4406 10.7994 27.288 10.7362 27.1755 10.6237C27.063 10.5112 26.9998 10.3585 26.9998 10.1994V7.79947Z" fill="white"/>
</svg>
