<svg width="50" height="40" viewBox="0 0 50 40" fill="none" xmlns="http://www.w3.org/2000/svg">
<path d="M47.3025 29.0567H2.69816C1.29927 29.0567 0.161133 27.9191 0.161133 26.5204V2.53642C0.161133 1.13783 1.29927 0 2.69816 0H47.3025C48.7008 0 49.8392 1.13783 49.8392 2.53642V26.5204C49.8392 27.9191 48.7008 29.0567 47.3025 29.0567ZM2.69816 2.04886C2.42909 2.04886 2.20979 2.26755 2.20979 2.53642V26.5204C2.20979 26.7892 2.42909 27.008 2.69816 27.008H47.3025C47.5714 27.008 47.7904 26.7892 47.7904 26.5204V2.53642C47.7904 2.26755 47.5715 2.04886 47.3025 2.04886H2.69816Z" fill="url(#paint0_linear_428_1347)"/>
<path d="M19.6968 22.3136C19.3604 22.1296 19.1416 21.7866 19.1416 21.4034V7.65381C19.1416 7.27038 19.3559 6.91929 19.6968 6.74339C20.0374 6.56759 20.4474 6.59688 20.7599 6.81912L30.4276 13.6939C30.6981 13.8861 30.8583 14.1971 30.8583 14.5286C30.8583 14.8603 30.6981 15.1713 30.4276 15.3635C30.4276 15.3635 23.1765 20.5193 20.7599 22.2381C20.5833 22.3637 20.2026 22.5905 19.6968 22.3136ZM21.1907 9.63931V19.4179L28.0662 14.5286L21.1907 9.63931Z" fill="url(#paint1_linear_428_1347)"/>
<path d="M48.8149 34.8721H29.2347C28.7799 33.1303 27.1931 31.8413 25.3109 31.8413C23.4289 31.8413 21.8425 33.1303 21.3877 34.8721H1.18551C0.619894 34.8721 0.161133 35.3308 0.161133 35.8965C0.161133 36.4623 0.619894 36.9208 1.18551 36.9208H21.3878C21.8426 38.6626 23.4291 39.9518 25.311 39.9518C27.1932 39.9518 28.7801 38.6625 29.2348 36.9208H48.8149C49.3801 36.9208 49.8392 36.4624 49.8392 35.8965C49.8392 35.3308 49.3801 34.8721 48.8149 34.8721ZM25.3109 37.9028C24.205 37.9028 23.3047 37.0028 23.3047 35.8964C23.3047 34.7902 24.205 33.8902 25.3109 33.8902C26.4173 33.8902 27.3174 34.7902 27.3174 35.8964C27.3174 37.0029 26.4173 37.9028 25.3109 37.9028Z" fill="url(#paint2_linear_428_1347)"/>
<defs>
<linearGradient id="paint0_linear_428_1347" x1="25.0002" y1="0" x2="25.0002" y2="29.0567" gradientUnits="userSpaceOnUse">
<stop stop-color="#3D34BE"/>
<stop offset="1" stop-color="#5147DD"/>
</linearGradient>
<linearGradient id="paint1_linear_428_1347" x1="25" y1="6.62939" x2="25" y2="22.4452" gradientUnits="userSpaceOnUse">
<stop stop-color="#3D34BE"/>
<stop offset="1" stop-color="#5147DD"/>
</linearGradient>
<linearGradient id="paint2_linear_428_1347" x1="25.0002" y1="31.8413" x2="25.0002" y2="39.9518" gradientUnits="userSpaceOnUse">
<stop stop-color="#3D34BE"/>
<stop offset="1" stop-color="#5147DD"/>
</linearGradient>
</defs>
</svg>
