<svg width="113" height="48" viewBox="0 0 113 48" fill="none" xmlns="http://www.w3.org/2000/svg">
<mask id="mask0_149_814" style="mask-type:alpha" maskUnits="userSpaceOnUse" x="0" y="0" width="113" height="48">
<path d="M0.111328 0H112.807V48H0.111328V0Z" fill="black"/>
</mask>
<g mask="url(#mask0_149_814)">
<path d="M61.4118 24.7702H63.7287V29.2362C63.1068 29.7015 62.4073 30.053 61.6628 30.2742C60.8988 30.5142 60.1027 30.6372 59.3027 30.6382C58.2356 30.6566 57.1811 30.4044 56.2377 29.9052C55.3513 29.4391 54.611 28.7369 54.0987 27.8762C53.5923 26.9822 53.3262 25.9722 53.3262 24.9447C53.3262 23.9172 53.5923 22.9073 54.0987 22.0132C54.6115 21.1468 55.3576 20.442 56.2517 19.9792C57.206 19.4814 58.2695 19.2297 59.3457 19.2472C60.2397 19.2362 61.1257 19.4012 61.9577 19.7322C62.7177 20.0422 63.3937 20.5272 63.9317 21.1492L62.3047 22.6592C61.9452 22.2674 61.507 21.956 61.0188 21.7452C60.5306 21.5345 60.0034 21.4292 59.4717 21.4362C58.8246 21.4225 58.1847 21.5743 57.6127 21.8772C57.0752 22.1541 56.6293 22.5806 56.3288 23.1052C56.0295 23.6706 55.873 24.3005 55.873 24.9402C55.873 25.5799 56.0295 26.2099 56.3288 26.7752C56.6248 27.3012 57.0617 27.7332 57.5887 28.0222C58.1523 28.3304 58.7865 28.4862 59.4287 28.4742C60.1153 28.4784 60.792 28.3114 61.3978 27.9882L61.4118 24.7702ZM69.4108 22.1782C69.955 21.9599 70.5374 21.8528 71.1237 21.8632V24.1252C70.8537 24.1252 70.6698 24.0952 70.5788 24.0952C70.2795 24.0774 69.9798 24.1202 69.6976 24.2213C69.4154 24.3224 69.1566 24.4795 68.9367 24.6832C68.7225 24.9226 68.559 25.203 68.4562 25.5074C68.3534 25.8118 68.3134 26.1339 68.3387 26.4542V30.4492H65.9248V21.9892H68.2567V23.1052C68.5479 22.6951 68.9475 22.3741 69.4108 22.1782ZM74.1208 30.0172C73.4377 29.6644 72.8664 29.1284 72.4707 28.4692C72.0816 27.7832 71.877 27.0079 71.877 26.2192C71.877 25.4305 72.0816 24.6552 72.4707 23.9692C72.8644 23.3047 73.4359 22.7634 74.1208 22.4062C74.8604 22.0389 75.675 21.8478 76.5007 21.8478C77.3265 21.8478 78.1411 22.0389 78.8807 22.4062C79.5597 22.7602 80.1278 23.2962 80.5218 23.9552C80.9142 24.6402 81.1206 25.4158 81.1206 26.2052C81.1206 26.9946 80.9142 27.7703 80.5218 28.4552C80.1284 29.113 79.5604 29.6489 78.8807 30.0032C78.1411 30.3704 77.3265 30.5615 76.5007 30.5615C75.675 30.5615 74.8604 30.3704 74.1208 30.0032V30.0172ZM78.0498 27.9252C78.4372 27.4437 78.6485 26.8443 78.6485 26.2262C78.6485 25.6082 78.4372 25.0087 78.0498 24.5272C77.8558 24.3113 77.6173 24.14 77.3508 24.0252C77.0842 23.9104 76.7959 23.8548 76.5057 23.8622C76.2171 23.8523 75.9296 23.9038 75.6623 24.0135C75.3951 24.1231 75.1542 24.2884 74.9557 24.4982C74.5653 24.9784 74.3522 25.5784 74.3522 26.1972C74.3522 26.8161 74.5653 27.4161 74.9557 27.8962C75.1553 28.1047 75.3963 28.2691 75.6633 28.3787C75.9303 28.4882 76.2173 28.5405 76.5057 28.5322C76.7914 28.5457 77.0766 28.4985 77.3427 28.3939C77.6088 28.2893 77.8498 28.1296 78.0498 27.9252ZM96.0257 21.9892L92.9808 30.4492H90.6348L88.7417 25.1972L86.7827 30.4492H84.4367L81.4047 21.9892H83.7028L85.6917 27.7122L87.7527 21.9892H89.8187L91.8217 27.7122L93.8688 21.9892H96.0257ZM102.833 30.0412C102.566 30.229 102.266 30.3641 101.949 30.4392C101.588 30.5321 101.216 30.5778 100.844 30.5752C99.999 30.6285 99.1665 30.3517 98.5218 29.8032C98.2338 29.5052 98.0118 29.1498 97.8703 28.7602C97.7289 28.3706 97.6711 27.9556 97.7007 27.5422V24.0662H96.3927V22.1782H97.6917V20.1152H100.134V22.1782H102.229V24.0662H100.134V27.5082C100.113 27.8082 100.21 28.1042 100.404 28.3332C100.506 28.4338 100.628 28.5117 100.762 28.5619C100.896 28.612 101.039 28.6333 101.182 28.6242C101.53 28.6312 101.869 28.5202 102.147 28.3082L102.833 30.0412ZM111.84 22.8042C112.483 23.4352 112.805 24.3692 112.805 25.6042V30.4592H110.392V25.9932C110.431 25.4553 110.275 24.9212 109.952 24.4892C109.788 24.3208 109.59 24.1901 109.371 24.1062C109.152 24.0222 108.917 23.9871 108.683 24.0032C108.414 23.9931 108.147 24.0393 107.897 24.1389C107.648 24.2384 107.422 24.3891 107.234 24.5812C107.028 24.8128 106.87 25.0826 106.769 25.3752C106.666 25.6684 106.622 25.9791 106.641 26.2892V30.4732H104.228V18.8242H106.641V22.8922C106.974 22.5612 107.374 22.3062 107.814 22.1442C108.295 21.9697 108.803 21.8827 109.315 21.8872C109.775 21.8645 110.236 21.9338 110.67 22.0913C111.103 22.2488 111.501 22.4911 111.84 22.8042ZM55.1657 47.1612C54.4985 46.9596 53.8816 46.6188 53.3558 46.1612L53.9357 44.9332C54.4053 45.341 54.9493 45.6541 55.5378 45.8552C56.1829 46.0885 56.8637 46.2083 57.5498 46.2092C58.2602 46.2527 58.9675 46.0839 59.5817 45.7242C59.7887 45.5922 59.9588 45.4098 60.0761 45.1942C60.1935 44.9786 60.2543 44.7367 60.2527 44.4912C60.2594 44.3205 60.2303 44.1503 60.1673 43.9915C60.1042 43.8327 60.0087 43.6889 59.8867 43.5692C59.6281 43.3229 59.318 43.1371 58.9787 43.0252C58.4778 42.8592 57.9688 42.7184 57.4538 42.6032C56.7767 42.4481 56.1106 42.2486 55.4597 42.0062C54.9588 41.8085 54.5134 41.4921 54.1618 41.0842C53.7792 40.6069 53.5868 40.0049 53.6217 39.3942C53.6204 38.829 53.7883 38.2763 54.1037 37.8072C54.4512 37.303 54.9376 36.9105 55.5037 36.6772C56.2414 36.3702 57.0361 36.2242 57.8347 36.2492C58.4788 36.2484 59.1201 36.3335 59.7417 36.5022C60.3179 36.6452 60.8638 36.8901 61.3537 37.2252L60.8377 38.4822C60.3804 38.1918 59.8851 37.9664 59.3657 37.8122C58.869 37.6647 58.3539 37.588 57.8357 37.5842C57.1368 37.5343 56.4397 37.7038 55.8418 38.0692C55.6342 38.2064 55.4644 38.3934 55.3479 38.6132C55.2314 38.833 55.1718 39.0785 55.1748 39.3272C55.1689 39.4988 55.1994 39.6697 55.2644 39.8286C55.3294 39.9876 55.4273 40.1309 55.5518 40.2492C55.8218 40.4942 56.1387 40.6812 56.4837 40.7972C56.9767 40.9652 57.4797 41.1042 57.9897 41.2152C58.6587 41.3722 59.3167 41.5752 59.9597 41.8212C60.4537 42.0192 60.8957 42.3312 61.2477 42.7342C61.6277 43.1962 61.8197 43.7852 61.7878 44.3842C61.7872 44.9479 61.6194 45.4988 61.3057 45.9672C60.945 46.4784 60.4412 46.8715 59.8577 47.0972C59.1124 47.395 58.3141 47.5373 57.5117 47.5152C56.7158 47.5236 55.9236 47.4047 55.1657 47.1612ZM66.7507 46.9602C66.1019 46.6057 65.5625 46.0804 65.1908 45.4412C64.827 44.7707 64.6365 44.02 64.6365 43.2572C64.6365 42.4944 64.827 41.7437 65.1908 41.0732C65.5628 40.4367 66.1024 39.9144 66.7507 39.5632C67.4462 39.196 68.2234 39.0109 69.0098 39.0252C69.7061 39.0122 70.3953 39.1687 71.0177 39.4812C71.5969 39.7732 72.0745 40.2333 72.3877 40.8012L71.2448 41.5392C71.0067 41.1607 70.6737 40.851 70.2787 40.6412C69.8823 40.4404 69.4431 40.3388 68.9987 40.3452C68.4937 40.3398 67.9957 40.4633 67.5518 40.7042C67.1217 40.9442 66.7697 41.3002 66.5337 41.7332C66.2827 42.2042 66.1557 42.7332 66.1667 43.2672C66.1537 43.8072 66.2807 44.3422 66.5337 44.8202C66.7697 45.2532 67.1228 45.6102 67.5518 45.8492C67.9958 46.0922 68.4947 46.2162 68.9997 46.2092C69.4437 46.2142 69.8827 46.1132 70.2797 45.9122C70.6743 45.7023 71.007 45.3927 71.2448 45.0142L72.4077 45.7042C72.092 46.2728 71.6154 46.7355 71.0378 47.0342C70.4177 47.3582 69.7277 47.5242 69.0287 47.5192C68.2384 47.5258 67.4599 47.3266 66.7697 46.9412L66.7507 46.9602ZM82.7178 39.9232C83.0474 40.2866 83.3 40.713 83.4602 41.1767C83.6203 41.6405 83.6848 42.1319 83.6497 42.6212V47.4172H82.1488V42.7912C82.1978 42.1326 81.9903 41.4805 81.5697 40.9712C81.3518 40.7575 81.0912 40.5921 80.805 40.486C80.5188 40.3799 80.2134 40.3353 79.9087 40.3552C79.5546 40.3341 79.2 40.387 78.8675 40.5106C78.5351 40.6342 78.232 40.8259 77.9777 41.0732C77.7303 41.3507 77.5406 41.6748 77.4197 42.0264C77.2989 42.378 77.2492 42.7502 77.2738 43.1212V47.4172H75.7728V35.7672H77.2738V40.2822C77.6038 39.8562 78.0367 39.5232 78.5337 39.3162C79.0704 39.0885 79.6489 38.9761 80.2318 38.9862C80.6896 38.9633 81.1474 39.0326 81.5779 39.1901C82.0084 39.3477 82.4028 39.5902 82.7377 39.9032L82.7178 39.9232ZM89.3747 46.9612C88.7292 46.607 88.1944 46.0809 87.8298 45.4412C87.469 44.7698 87.2803 44.0194 87.2807 43.2572C87.2807 42.4942 87.4688 41.7442 87.8298 41.0732C88.1949 40.4365 88.7298 39.9137 89.3747 39.5632C90.0592 39.2078 90.819 39.0222 91.5902 39.0222C92.3615 39.0222 93.1213 39.2078 93.8057 39.5632C94.4447 39.9162 94.9757 40.4382 95.3407 41.0732C95.7019 41.7445 95.8909 42.4949 95.8909 43.2572C95.8909 44.0195 95.7019 44.7699 95.3407 45.4412C94.9774 46.0785 94.4466 46.6042 93.8057 46.9612C93.1227 47.3211 92.3623 47.5092 91.5902 47.5092C90.8182 47.5092 90.0578 47.3211 89.3747 46.9612ZM93.0238 45.8202C93.4458 45.5752 93.7907 45.2152 94.0177 44.7812C94.2528 44.3042 94.375 43.7795 94.375 43.2477C94.375 42.7159 94.2528 42.1913 94.0177 41.7142C93.7903 41.2839 93.4457 40.9268 93.0238 40.6842C92.5836 40.4484 92.0921 40.325 91.5928 40.325C91.0934 40.325 90.6019 40.4484 90.1618 40.6842C89.7407 40.9292 89.3948 41.2842 89.1618 41.7142C88.9207 42.1895 88.7951 42.7148 88.7951 43.2477C88.7951 43.7806 88.9207 44.306 89.1618 44.7812C89.3948 45.2132 89.7407 45.5722 90.1618 45.8202C90.5998 46.0626 91.0922 46.1897 91.5928 46.1897C92.0933 46.1897 92.5857 46.0626 93.0238 45.8202ZM100.868 46.9602C100.224 46.606 99.6908 46.0802 99.3278 45.4412C98.9675 44.7696 98.7789 44.0193 98.7789 43.2572C98.7789 42.4951 98.9675 41.7448 99.3278 41.0732C99.6909 40.4366 100.224 39.9138 100.868 39.5632C101.553 39.2092 102.314 39.0245 103.086 39.0245C103.857 39.0245 104.618 39.2092 105.304 39.5632C105.942 39.9169 106.472 40.4392 106.834 41.0732C107.195 41.7445 107.384 42.4949 107.384 43.2572C107.384 44.0195 107.195 44.7699 106.834 45.4412C106.472 46.0781 105.943 46.6038 105.304 46.9612C104.62 47.3212 103.859 47.5093 103.086 47.5093C102.313 47.5093 101.552 47.3202 100.868 46.9602ZM104.522 45.8212C104.942 45.5752 105.285 45.2152 105.512 44.7822C105.751 44.3064 105.875 43.7812 105.875 43.2487C105.875 42.7162 105.751 42.191 105.512 41.7152C105.286 41.2853 104.942 40.9282 104.522 40.6852C104.079 40.4406 103.58 40.3168 103.074 40.3262C102.568 40.3157 102.068 40.4399 101.626 40.6862C101.202 40.9294 100.854 41.2857 100.622 41.7152C100.38 42.1902 100.253 42.7157 100.253 43.2487C100.253 43.7818 100.38 44.3073 100.622 44.7822C100.879 45.2182 101.253 45.5722 101.703 45.8022C102.143 46.0552 102.644 46.1822 103.151 46.1702C103.639 46.1712 104.118 46.0442 104.541 45.8012L104.522 45.8212ZM111.034 35.7492H112.535V47.4002H111.034V35.7492Z" fill="black"/>
</g>
</svg>
