<svg width="148" height="37" viewBox="0 0 148 37" fill="none" xmlns="http://www.w3.org/2000/svg">
<mask id="mask0_149_813" style="mask-type:alpha" maskUnits="userSpaceOnUse" x="-3" y="0" width="151" height="37">
<path d="M-2.88867 0H147.111V36.847H-2.88867V0Z" fill="#283691"/>
</mask>
<g mask="url(#mask0_149_813)">
<path d="M50.3865 14.447C51.6055 14.447 52.7665 14.969 53.5785 15.868C54.4339 16.8374 54.9058 18.0858 54.9058 19.3785C54.9058 20.6713 54.4339 21.9196 53.5785 22.889C53.1837 23.3461 52.693 23.7106 52.1413 23.9564C51.5896 24.2022 50.9904 24.3233 50.3865 24.311C49.0815 24.311 48.0945 23.847 47.3695 22.948V24.079H44.9895V10.965H47.3695V15.81C48.0945 14.91 49.0815 14.447 50.3865 14.447ZM48.0945 21.294C48.3335 21.5354 48.6183 21.7265 48.9323 21.856C49.2462 21.9855 49.5829 22.0508 49.9225 22.048C50.6195 22.078 51.2865 21.787 51.7795 21.294C52.2556 20.7756 52.5197 20.0974 52.5197 19.3935C52.5197 18.6897 52.2556 18.0115 51.7795 17.493C51.535 17.2512 51.245 17.0601 50.9263 16.9307C50.6076 16.8013 50.2665 16.7362 49.9225 16.739C49.5817 16.7269 49.2422 16.7879 48.9268 16.9179C48.6115 17.048 48.3277 17.2441 48.0945 17.493C47.1375 18.595 47.1375 20.22 48.0945 21.293V21.294ZM58.6275 20.397C58.9475 21.587 59.8175 22.167 61.2385 22.167C61.6366 22.1966 62.0358 22.1271 62.4005 21.9648C62.7652 21.8026 63.084 21.5525 63.3286 21.237L65.2425 22.37C64.3145 23.704 62.9795 24.371 61.2095 24.371C59.6715 24.371 58.4535 23.907 57.5245 22.979C56.5965 22.05 56.1035 20.774 56.1325 19.439C56.1068 18.1263 56.5961 16.8556 57.4955 15.899C57.9512 15.4329 58.4983 15.066 59.1025 14.8215C59.7067 14.577 60.355 14.46 61.0065 14.478C61.636 14.4647 62.2612 14.5843 62.8413 14.8292C63.4213 15.0741 63.9431 15.4386 64.3726 15.899C65.2633 16.8474 65.7428 18.1095 65.7066 19.41C65.7066 19.73 65.6776 20.077 65.6196 20.397H58.6275ZM58.5975 18.511H63.3276C63.2301 17.9503 62.931 17.4445 62.4865 17.089C62.0805 16.769 61.5575 16.625 61.0355 16.625C60.462 16.5956 59.8966 16.7703 59.4395 17.118C59.0045 17.495 58.6845 17.988 58.5975 18.511ZM72.6715 17.061H70.5816V20.949C70.5686 21.0794 70.5826 21.211 70.6227 21.3358C70.6627 21.4605 70.7281 21.5756 70.8146 21.674C71.0176 21.849 71.2495 21.936 71.5106 21.936C71.8876 21.965 72.2935 21.965 72.6705 21.936V24.082C71.0175 24.286 69.8566 24.112 69.1896 23.618C68.5216 23.125 68.1735 22.226 68.1735 20.949V17.061H66.5496V14.741H68.1735V12.854L70.5536 12.129V14.74H72.6415L72.6715 17.061ZM79.9246 17.061H77.8355V20.949C77.8224 21.0793 77.8363 21.2109 77.8762 21.3357C77.9161 21.4604 77.9812 21.5756 78.0676 21.674C78.2706 21.849 78.5035 21.936 78.7645 21.936C79.1415 21.965 79.5476 21.965 79.9246 21.936V24.082C78.2706 24.286 77.1105 24.112 76.4436 23.618C75.7756 23.125 75.4276 22.226 75.4276 20.949V17.061H73.8026V14.741H75.4276V12.854L77.8075 12.129V14.74H79.8955L79.9246 17.061ZM83.6395 20.394C83.9585 21.584 84.8296 22.164 86.2495 22.164C86.6474 22.1938 87.0465 22.1246 87.4112 21.9627C87.7759 21.8008 88.0948 21.5512 88.3395 21.236L90.2545 22.338C89.3255 23.673 87.9915 24.34 86.2215 24.34C84.6835 24.34 83.4646 23.876 82.5366 22.948C81.6086 22.019 81.1145 20.742 81.1445 19.408C81.1187 18.0953 81.608 16.8245 82.5076 15.868C82.963 15.402 83.51 15.0352 84.114 14.7906C84.718 14.5461 85.3661 14.4291 86.0175 14.447C86.647 14.4337 87.2722 14.5533 87.8522 14.7982C88.4323 15.0431 88.9541 15.4076 89.3836 15.868C90.2744 16.816 90.7543 18.0777 90.7186 19.378C90.7186 19.698 90.6885 20.046 90.6315 20.365H83.6395V20.395V20.394ZM83.6096 18.508H88.3395C88.2416 17.9475 87.9422 17.4421 87.4976 17.087C87.0916 16.767 86.5695 16.622 86.0475 16.622C85.4739 16.5929 84.9084 16.7679 84.4515 17.116C84.018 17.4682 83.7197 17.9604 83.6096 18.508ZM94.8655 16.334C95.0686 15.754 95.4455 15.29 95.9686 14.999C96.4899 14.7008 97.0789 14.541 97.6796 14.535V17.233C96.9836 17.146 96.2876 17.291 95.7365 17.698C95.1555 18.075 94.8655 18.713 94.8655 19.642V24.081H92.4865V14.738H94.8655V16.334ZM104.352 14.45C104.953 14.4508 105.548 14.5776 106.098 14.8221C106.648 15.0667 107.14 15.4237 107.544 15.87C108.399 16.8395 108.871 18.088 108.871 19.381C108.871 20.6741 108.399 21.9226 107.544 22.892C107.149 23.349 106.658 23.7134 106.106 23.9592C105.554 24.205 104.955 24.3261 104.352 24.314C103.047 24.314 102.06 23.85 101.335 22.95V27.795H98.9556V14.74H101.335V15.843C102.06 14.914 103.076 14.45 104.352 14.45ZM102.089 21.296C102.327 21.5376 102.612 21.7288 102.926 21.8585C103.24 21.9881 103.577 22.0536 103.917 22.051C104.613 22.08 105.281 21.79 105.774 21.296C106.249 20.7774 106.513 20.0995 106.513 19.396C106.513 18.6926 106.249 18.0146 105.774 17.496C105.529 17.254 105.239 17.0627 104.92 16.9332C104.602 16.8036 104.261 16.7383 103.917 16.741C103.576 16.7291 103.236 16.7904 102.921 16.9206C102.605 17.0508 102.322 17.247 102.089 17.496C101.132 18.598 101.132 20.223 102.089 21.296ZM110.651 24.08V10.413H113.03V24.08H110.651ZM122.34 14.739H124.719V24.081H122.34V22.98C121.614 23.88 120.628 24.343 119.322 24.343C118.72 24.3422 118.125 24.2153 117.576 23.9706C117.026 23.7258 116.534 23.3686 116.131 22.922C115.275 21.9526 114.803 20.7041 114.803 19.411C114.803 18.118 115.275 16.8695 116.131 15.9C116.525 15.4432 117.016 15.079 117.567 14.8334C118.119 14.5878 118.718 14.4668 119.322 14.479C120.628 14.479 121.643 14.943 122.34 15.842V14.739ZM117.93 21.296C118.423 21.789 119.09 22.05 119.757 22.05C120.454 22.08 121.121 21.79 121.614 21.296C122.089 20.7777 122.353 20.0996 122.353 19.396C122.353 18.6924 122.089 18.0144 121.614 17.496C121.369 17.254 121.079 17.0627 120.76 16.9332C120.442 16.8036 120.101 16.7383 119.757 16.741C119.415 16.7223 119.074 16.7803 118.758 16.9108C118.441 17.0413 118.158 17.2409 117.93 17.495C116.972 18.598 116.972 20.223 117.93 21.296ZM131.393 24.342C130.746 24.356 130.103 24.2372 129.504 23.9927C128.905 23.7483 128.363 23.3835 127.911 22.921C127.016 21.971 126.517 20.7151 126.517 19.41C126.517 18.105 127.016 16.8491 127.911 15.899C128.363 15.4366 128.905 15.0719 129.504 14.8274C130.103 14.583 130.746 14.4641 131.393 14.478C132.263 14.478 133.104 14.71 133.859 15.145C134.585 15.552 135.171 16.169 135.541 16.915L133.482 18.133C133.298 17.7475 133.006 17.4246 132.64 17.205C132.255 16.9723 131.813 16.8517 131.364 16.857C131.034 16.8425 130.704 16.8998 130.399 17.025C130.093 17.1501 129.818 17.3402 129.594 17.582C129.144 18.0907 128.897 18.746 128.897 19.4245C128.897 20.1031 129.144 20.7583 129.594 21.267C130.064 21.7337 130.701 21.9944 131.364 21.992C131.828 21.992 132.263 21.876 132.64 21.673C133.01 21.472 133.306 21.1562 133.482 20.773L135.57 21.963C135.164 22.6927 134.574 23.303 133.859 23.733C133.104 24.11 132.263 24.343 131.393 24.343V24.342ZM138.88 20.397C139.199 21.587 140.069 22.167 141.491 22.167C141.888 22.1964 142.287 22.1269 142.652 21.9646C143.016 21.8023 143.335 21.5524 143.58 21.237L145.524 22.37C144.595 23.704 143.261 24.371 141.491 24.371C139.953 24.371 138.735 23.907 137.806 22.979C135.978 20.977 135.949 17.901 137.777 15.899C138.232 15.4329 138.779 15.066 139.383 14.8214C139.988 14.5769 140.636 14.46 141.288 14.478C141.917 14.4647 142.542 14.5844 143.122 14.8293C143.702 15.0742 144.223 15.4387 144.653 15.899C145.544 16.8471 146.024 18.1093 145.988 19.41C145.988 19.73 145.959 20.077 145.901 20.397H138.88ZM138.851 18.511H143.58C143.482 17.9501 143.183 17.4442 142.738 17.089C142.332 16.769 141.81 16.625 141.288 16.625C140.714 16.5956 140.149 16.7703 139.692 17.118C139.257 17.466 138.938 17.959 138.851 18.511ZM32.2165 14.334C29.8665 9.11104 22.7585 4.12104 13.9375 7.34204C12.0805 2.00304 7.29355 -1.30496 2.73855 3.45404C1.28855 4.96204 -1.93245 11.81 1.95555 20.63C3.58055 24.314 6.48155 27.36 9.90555 29.363C5.00155 25.069 3.49355 20.688 2.62255 16.829C1.57855 12.216 3.08655 5.10704 6.62655 4.17904C8.25155 3.77304 10.2535 5.89104 11.1235 8.58904C7.58355 10.504 5.34955 13.319 5.00155 17.032C4.45055 22.748 12.1975 25.388 14.6345 17.583C15.3305 15.349 15.2725 12.361 14.6635 9.72104C16.7442 8.94124 19.008 8.78946 21.1741 9.28455C23.3402 9.77963 25.3133 10.8998 26.8485 12.506C32.3035 18.366 30.1275 24.663 27.3135 28.289C25.8281 30.1925 23.8974 31.7015 21.6914 32.6831C19.4855 33.6647 17.072 34.0888 14.6635 33.918C5.93055 33.251 -0.220453 24.605 -1.43945 19.295C-0.597453 26.229 7.96055 38.908 21.2205 35.369C29.7205 33.077 36.1045 22.979 32.2165 14.334ZM10.1955 19.324C8.74455 20.078 7.70055 18.86 7.67155 17.467C7.58355 14.769 9.64355 12.535 11.7915 11.142C12.1395 12.912 12.6035 18.105 10.1955 19.324Z" fill="#283691"/>
</g>
</svg>
