<svg width="134" height="32" viewBox="0 0 134 32" fill="none" xmlns="http://www.w3.org/2000/svg">
<path fill-rule="evenodd" clip-rule="evenodd" d="M48.9737 23.6268C44.216 23.6268 40.9424 20.2877 40.9424 15.7702V15.7265C40.9424 11.3835 44.3251 7.82617 48.9518 7.82617C51.2652 7.82617 52.7929 8.34995 54.1678 9.31021C54.4952 9.55028 54.8662 10.0086 54.8662 10.6633C54.8662 11.5799 54.1241 12.3219 53.2075 12.3219C52.7274 12.3219 52.4219 12.1473 52.1818 11.9728C51.2652 11.318 50.2831 10.9252 48.8427 10.9252C46.3984 10.9252 44.4561 13.0858 44.4561 15.6829V15.7265C44.4561 18.52 46.3766 20.5715 49.0828 20.5715C50.3049 20.5715 51.3961 20.2659 52.2473 19.6548V17.4724H49.9776C49.1701 17.4724 48.5154 16.8395 48.5154 16.032C48.5154 15.2245 49.1701 14.5698 49.9776 14.5698H53.8186C54.757 14.5698 55.4991 15.3118 55.4991 16.2503V19.9604C55.4991 20.9425 55.1281 21.619 54.3206 22.0991C53.0766 22.863 51.2652 23.6268 48.9737 23.6268ZM65.1017 23.605C60.9987 23.605 58.489 21.3135 58.489 16.8177V9.63757C58.489 8.69914 59.231 7.95712 60.1694 7.95712C61.1079 7.95712 61.8499 8.69914 61.8499 9.63757V16.7304C61.8499 19.2184 63.0939 20.506 65.1453 20.506C67.1968 20.506 68.4408 19.262 68.4408 16.8395V9.63757C68.4408 8.69914 69.1828 7.95712 70.1212 7.95712C71.0597 7.95712 71.8017 8.69914 71.8017 9.63757V16.7086C71.8017 21.3353 69.2046 23.605 65.1017 23.605ZM75.2281 21.8591V9.68122C75.2281 8.74279 75.9701 8.00076 76.9085 8.00076H77.2795C77.9997 8.00076 78.5017 8.37177 78.8072 8.87373L82.8665 15.4864L86.9476 8.85191C87.2968 8.28448 87.7769 8.00076 88.4535 8.00076H88.8245C89.7629 8.00076 90.505 8.74279 90.505 9.68122V21.8154C90.505 22.7539 89.7629 23.4959 88.8245 23.4959C87.9079 23.4959 87.1659 22.732 87.1659 21.8154V14.1988L84.2196 18.7382C83.8704 19.262 83.4339 19.5894 82.8229 19.5894C82.2118 19.5894 81.7753 19.262 81.4261 18.7382L78.5235 14.2643V21.8591C78.5235 22.7757 77.7815 23.4959 76.8649 23.4959C75.9483 23.4959 75.2281 22.7757 75.2281 21.8591ZM94.1714 21.6845V9.63757C94.1714 8.69914 94.9134 7.95712 95.8519 7.95712C96.7903 7.95712 97.5323 8.69914 97.5323 9.63757V20.3096H103.752C104.603 20.3096 105.28 20.9861 105.28 21.8373C105.28 22.6884 104.603 23.3649 103.752 23.3649H95.8519C94.9134 23.3649 94.1714 22.6229 94.1714 21.6845ZM109.361 23.3649C108.423 23.3649 107.681 22.6229 107.681 21.6845V9.76852C107.681 8.83008 108.423 8.08806 109.361 8.08806H117.829C118.658 8.08806 119.335 8.76461 119.335 9.59393C119.335 10.4232 118.658 11.078 117.829 11.078H111.02V14.177H116.847C117.676 14.177 118.353 14.8535 118.353 15.6829C118.353 16.5122 117.676 17.1669 116.847 17.1669H111.02V20.375H117.938C118.767 20.375 119.444 21.0516 119.444 21.8809C119.444 22.7102 118.767 23.3649 117.938 23.3649H109.361ZM125.86 21.8154V11.1871H122.63C121.779 11.1871 121.081 10.4887 121.081 9.63757C121.081 8.78643 121.779 8.08806 122.63 8.08806H132.451C133.302 8.08806 134 8.78643 134 9.63757C134 10.4887 133.302 11.1871 132.451 11.1871H129.221V21.8154C129.221 22.7539 128.479 23.4959 127.54 23.4959C126.602 23.4959 125.86 22.7539 125.86 21.8154Z" fill="black"/>
<path d="M11.9292 21.0054L6.58691 28.519C8.95984 30.1485 11.6726 31.188 14.7464 31.3276V22.0127C13.6768 21.8944 12.7938 21.5526 11.9292 21.0054Z" fill="#104A70"/>
<path d="M14.7464 9.31531L14.6845 0.065918C11.6482 0.212592 8.95021 1.1931 6.58691 2.82146L11.9183 10.2898C12.7642 9.75995 13.6947 9.42109 14.7464 9.31531Z" fill="#ED7324"/>
<path d="M23.9869 2.65227C21.5925 1.01596 18.782 0.15754 15.6895 0.065918L15.6309 9.30342C16.6934 9.38029 17.7008 9.66017 18.5593 10.1915L23.9869 2.65227Z" fill="#FBBC05"/>
<path d="M9.50172 18.0562L0.786133 20.9346C1.80449 23.7766 3.54217 26.1694 5.87331 27.9851L11.305 20.5324C10.523 19.8678 9.89819 19.0212 9.50172 18.0562Z" fill="#0F1E2A"/>
<path d="M11.3053 10.724L5.94108 3.31006C4.37604 4.53585 3.09932 6.02775 2.08883 7.75746C1.59661 8.60024 1.21685 9.4624 0.884766 10.396L9.54727 13.239C9.94001 12.2698 10.5264 11.3928 11.3053 10.724Z" fill="#DF5216"/>
<path d="M9.12445 15.6685C9.11206 15.1317 9.17016 14.5616 9.28665 14.0751L0.625035 11.2725C0.223845 12.6625 0 14.0783 0 15.598C0 17.1264 0.174003 18.5267 0.579027 19.9235L9.33915 17.1617C9.21902 16.6679 9.13693 16.2054 9.12445 15.6684V15.6685Z" fill="#D53C0D"/>
<path d="M19.3662 20.6408L24.797 28.0833C27.1233 26.2633 28.9713 23.8421 29.9833 20.9976L21.2531 18.1543C20.8437 19.1141 20.1699 19.9858 19.3662 20.6408Z" fill="#378A9B"/>
<path d="M15.6309 22.04V31.3278C18.713 31.2325 21.6027 30.3214 23.9869 28.6948L18.5354 21.2021C17.6702 21.7246 16.6901 21.9748 15.6309 22.04Z" fill="#1D77B2"/>
<path d="M30.2107 11.1743L19.7598 14.3908C19.8767 14.8991 19.9233 15.1496 19.9219 15.5978C19.9203 16.0461 19.8654 16.2836 19.7598 16.7936L30.2476 20.0219C30.6581 18.624 30.8684 17.1254 30.8684 15.5981C30.8692 14.0627 30.639 12.6029 30.2107 11.1743Z" fill="#539E82"/>
</svg>
