<svg width="170" height="40" viewBox="0 0 170 40" fill="none" xmlns="http://www.w3.org/2000/svg">
<path fill-rule="evenodd" clip-rule="evenodd" d="M62.1303 29.8903C56.0945 29.8903 51.9414 25.6542 51.9414 19.9229V19.8675C51.9414 14.3578 56.2329 9.84473 62.1026 9.84473C65.0375 9.84473 66.9756 10.5092 68.7199 11.7275C69.1352 12.032 69.6059 12.6135 69.6059 13.4441C69.6059 14.6069 68.6645 15.5483 67.5017 15.5483C66.8926 15.5483 66.5049 15.3268 66.2004 15.1053C65.0375 14.2747 63.7916 13.7763 61.9642 13.7763C58.8632 13.7763 56.3991 16.5174 56.3991 19.8122V19.8675C56.3991 23.4115 58.8355 26.0141 62.2688 26.0141C63.8193 26.0141 65.2036 25.6265 66.2834 24.8512V22.0825H63.404C62.3795 22.0825 61.5489 21.2796 61.5489 20.2552C61.5489 19.2307 62.3795 18.4001 63.404 18.4001H68.2769C69.4675 18.4001 70.4088 19.3415 70.4088 20.532V25.2389C70.4088 26.4848 69.9382 27.3431 68.9137 27.9522C67.3356 28.9213 65.0375 29.8903 62.1303 29.8903ZM82.5913 29.8626C77.386 29.8626 74.202 26.9555 74.202 21.2519V12.1428C74.202 10.9522 75.1434 10.0109 76.3339 10.0109C77.5245 10.0109 78.4658 10.9522 78.4658 12.1428V21.1411C78.4658 24.2975 80.044 25.9311 82.6466 25.9311C85.2492 25.9311 86.8274 24.3529 86.8274 21.2796V12.1428C86.8274 10.9522 87.7688 10.0109 88.9593 10.0109C90.1499 10.0109 91.0913 10.9522 91.0913 12.1428V21.1135C91.0913 26.9832 87.7965 29.8626 82.5913 29.8626ZM95.4382 27.6477V12.1981C95.4382 11.0076 96.3795 10.0662 97.5701 10.0662H98.0408C98.9545 10.0662 99.5913 10.5369 99.9789 11.1737L105.129 19.563L110.306 11.146C110.749 10.4262 111.358 10.0662 112.217 10.0662H112.687C113.878 10.0662 114.819 11.0076 114.819 12.1981V27.5923C114.819 28.7828 113.878 29.7242 112.687 29.7242C111.525 29.7242 110.583 28.7552 110.583 27.5923V17.9294L106.845 23.6884C106.402 24.3529 105.849 24.7682 105.073 24.7682C104.298 24.7682 103.744 24.3529 103.301 23.6884L99.619 18.0125V27.6477C99.619 28.8105 98.6776 29.7242 97.5147 29.7242C96.3519 29.7242 95.4382 28.8105 95.4382 27.6477ZM119.471 27.4262V12.1428C119.471 10.9522 120.412 10.0109 121.603 10.0109C122.793 10.0109 123.735 10.9522 123.735 12.1428V25.6819H131.625C132.705 25.6819 133.564 26.5402 133.564 27.62C133.564 28.6998 132.705 29.5581 131.625 29.5581H121.603C120.412 29.5581 119.471 28.6167 119.471 27.4262ZM138.741 29.5581C137.551 29.5581 136.609 28.6167 136.609 27.4262V12.3089C136.609 11.1183 137.551 10.177 138.741 10.177H149.484C150.536 10.177 151.394 11.0353 151.394 12.0874C151.394 13.1395 150.536 13.9701 149.484 13.9701H140.845V17.9017H148.238C149.29 17.9017 150.148 18.76 150.148 19.8122C150.148 20.8643 149.29 21.6949 148.238 21.6949H140.845V25.7649H149.622C150.674 25.7649 151.533 26.6232 151.533 27.6754C151.533 28.7275 150.674 29.5581 149.622 29.5581H138.741ZM159.673 27.5923V14.1086H155.575C154.495 14.1086 153.609 13.2226 153.609 12.1428C153.609 11.063 154.495 10.177 155.575 10.177H168.034C169.114 10.177 170 11.063 170 12.1428C170 13.2226 169.114 14.1086 168.034 14.1086H163.937V27.5923C163.937 28.7828 162.995 29.7242 161.805 29.7242C160.614 29.7242 159.673 28.7828 159.673 27.5923Z" fill="white"/>
<path d="M15.134 26.5647L8.35645 36.0969C11.3669 38.1642 14.8085 39.4829 18.708 39.66V27.8427C17.3511 27.6925 16.2309 27.259 15.134 26.5647Z" fill="#104A70"/>
<path d="M18.708 11.7343L18.6296 0C14.7775 0.186079 11.3547 1.43001 8.35645 3.49584L15.1201 12.9706C16.1933 12.2984 17.3738 11.8685 18.708 11.7343Z" fill="#ED7324"/>
<path d="M30.4311 3.2812C27.3933 1.20527 23.8278 0.116237 19.9045 0L19.8301 11.7192C21.178 11.8167 22.4561 12.1718 23.5453 12.8459L30.4311 3.2812Z" fill="#FBBC05"/>
<path d="M12.0551 22.8235L0.998047 26.4752C2.29 30.0808 4.49451 33.1164 7.45193 35.42L14.3428 25.965C13.3508 25.1219 12.5581 24.0478 12.0551 22.8235Z" fill="#0F1E2A"/>
<path d="M14.3421 13.5212L7.5368 4.11548C5.55129 5.67058 3.93158 7.5633 2.64961 9.7577C2.02515 10.8269 1.54337 11.9207 1.12207 13.1051L12.1118 16.712C12.6101 15.4824 13.354 14.3698 14.3421 13.5212Z" fill="#DF5216"/>
<path d="M11.5758 19.7947C11.5601 19.1136 11.6338 18.3903 11.7816 17.7731L0.792955 14.2175C0.283982 15.981 0 17.7772 0 19.7051C0 21.6442 0.22075 23.4207 0.734587 25.1927L11.8482 21.689C11.6958 21.0625 11.5916 20.4757 11.5758 19.7945V19.7947Z" fill="#D53C0D"/>
<path d="M24.5693 26.1025L31.4591 35.5445C34.4104 33.2356 36.7549 30.1639 38.0388 26.5552L26.9632 22.948C26.4437 24.1656 25.5889 25.2715 24.5693 26.1025Z" fill="#378A9B"/>
<path d="M19.8301 27.8772V39.6601C23.7402 39.5393 27.4063 38.3834 30.4311 36.3198L23.515 26.8142C22.4173 27.4771 21.1739 27.7945 19.8301 27.8772Z" fill="#1D77B2"/>
<path d="M38.327 14.093L25.0684 18.1737C25.2166 18.8184 25.2759 19.1363 25.274 19.7049C25.272 20.2736 25.2024 20.575 25.0684 21.222L38.3739 25.3176C38.8946 23.5441 39.1615 21.6429 39.1615 19.7053C39.1624 17.7573 38.8704 15.9054 38.327 14.093Z" fill="#539E82"/>
</svg>
