<svg width="34" height="34" viewBox="0 0 34 34" fill="none" xmlns="http://www.w3.org/2000/svg">
<path d="M30.0137 13.1274C30.2887 13.1274 30.5117 12.9045 30.5117 12.6294V11.9175C30.5117 11.6424 30.2887 11.4194 30.0137 11.4194C29.7386 11.4194 29.5156 11.6424 29.5156 11.9175V12.6294C29.5156 12.9045 29.7386 13.1274 30.0137 13.1274Z" fill="#2419CE"/>
<path d="M29.5156 15.2397C29.5156 15.5148 29.7386 15.7378 30.0137 15.7378C30.2887 15.7378 30.5117 15.5148 30.5117 15.2397V14.5278C30.5117 14.2527 30.2887 14.0298 30.0137 14.0298C29.7386 14.0298 29.5156 14.2527 29.5156 14.5278V15.2397Z" fill="#2419CE"/>
<path d="M3.98633 14.0298C3.71127 14.0298 3.48828 14.2527 3.48828 14.5278V15.2397C3.48828 15.5148 3.71127 15.7378 3.98633 15.7378C4.26139 15.7378 4.48438 15.5148 4.48438 15.2397V14.5278C4.48438 14.2527 4.26139 14.0298 3.98633 14.0298Z" fill="#2419CE"/>
<path d="M4.48438 11.9175C4.48438 11.6424 4.26139 11.4194 3.98633 11.4194C3.71127 11.4194 3.48828 11.6424 3.48828 11.9175V12.6294C3.48828 12.9045 3.71127 13.1274 3.98633 13.1274C4.26139 13.1274 4.48438 12.9045 4.48438 12.6294V11.9175Z" fill="#2419CE"/>
<path d="M17.3983 18.3804H16.6025C16.3275 18.3804 16.1045 18.6033 16.1045 18.8784C16.1045 19.1535 16.3275 19.3765 16.6025 19.3765H17.3983C17.6733 19.3765 17.8963 19.1535 17.8963 18.8784C17.8963 18.6033 17.6733 18.3804 17.3983 18.3804Z" fill="#2419CE"/>
<path d="M22.4375 19.3765H23.2333C23.5084 19.3765 23.7314 19.1535 23.7314 18.8784C23.7314 18.6033 23.5084 18.3804 23.2333 18.3804H22.4375C22.1624 18.3804 21.9395 18.6033 21.9395 18.8784C21.9395 19.1535 22.1624 19.3765 22.4375 19.3765Z" fill="#2419CE"/>
<path d="M25.3555 18.3804C25.0804 18.3804 24.8574 18.6033 24.8574 18.8784C24.8574 19.1535 25.0804 19.3765 25.3555 19.3765H26.1513C26.4263 19.3765 26.6493 19.1535 26.6493 18.8784C26.6493 18.6033 26.4263 18.3804 26.1513 18.3804H25.3555Z" fill="#2419CE"/>
<path d="M8.64445 18.3804H7.84863C7.57358 18.3804 7.35059 18.6033 7.35059 18.8784C7.35059 19.1535 7.57358 19.3765 7.84863 19.3765H8.64445C8.91951 19.3765 9.1425 19.1535 9.1425 18.8784C9.1425 18.6033 8.91957 18.3804 8.64445 18.3804Z" fill="#2419CE"/>
<path d="M19.5195 19.3765H20.3153C20.5904 19.3765 20.8134 19.1535 20.8134 18.8784C20.8134 18.6033 20.5904 18.3804 20.3153 18.3804H19.5195C19.2445 18.3804 19.0215 18.6033 19.0215 18.8784C19.0215 19.1535 19.2445 19.3765 19.5195 19.3765Z" fill="#2419CE"/>
<path d="M13.6846 19.3765H14.4803C14.7554 19.3765 14.9784 19.1535 14.9784 18.8784C14.9784 18.6033 14.7554 18.3804 14.4803 18.3804H13.6846C13.4095 18.3804 13.1865 18.6033 13.1865 18.8784C13.1865 19.1535 13.4095 19.3765 13.6846 19.3765Z" fill="#2419CE"/>
<path d="M10.7666 18.3804C10.4915 18.3804 10.2686 18.6033 10.2686 18.8784C10.2686 19.1535 10.4915 19.3765 10.7666 19.3765H11.5624C11.8374 19.3765 12.0604 19.1535 12.0604 18.8784C12.0604 18.6033 11.8374 18.3804 11.5624 18.3804H10.7666Z" fill="#2419CE"/>
<path d="M23.2333 7.78174H22.4375C22.1624 7.78174 21.9395 8.00466 21.9395 8.27979C21.9395 8.55491 22.1624 8.77784 22.4375 8.77784H23.2333C23.5084 8.77784 23.7314 8.55491 23.7314 8.27979C23.7314 8.00466 23.5084 7.78174 23.2333 7.78174Z" fill="#2419CE"/>
<path d="M19.5195 8.77784H20.3153C20.5904 8.77784 20.8134 8.55491 20.8134 8.27979C20.8134 8.00466 20.5904 7.78174 20.3153 7.78174H19.5195C19.2445 7.78174 19.0215 8.00466 19.0215 8.27979C19.0215 8.55484 19.2445 8.77784 19.5195 8.77784Z" fill="#2419CE"/>
<path d="M26.1513 8.77784C26.4263 8.77784 26.6493 8.55491 26.6493 8.27979C26.6493 8.00466 26.4263 7.78174 26.1513 7.78174H25.3555C25.0804 7.78174 24.8574 8.00466 24.8574 8.27979C24.8574 8.55491 25.0804 8.77784 25.3555 8.77784H26.1513Z" fill="#2419CE"/>
<path d="M14.4803 8.77784C14.7554 8.77784 14.9784 8.55491 14.9784 8.27979C14.9784 8.00466 14.7554 7.78174 14.4803 7.78174H13.6846C13.4095 7.78174 13.1865 8.00466 13.1865 8.27979C13.1865 8.55491 13.4095 8.77784 13.6846 8.77784H14.4803Z" fill="#2419CE"/>
<path d="M10.7666 8.77784H11.5624C11.8374 8.77784 12.0604 8.55491 12.0604 8.27979C12.0604 8.00466 11.8374 7.78174 11.5624 7.78174H10.7666C10.4915 7.78174 10.2686 8.00466 10.2686 8.27979C10.2686 8.55484 10.4915 8.77784 10.7666 8.77784Z" fill="#2419CE"/>
<path d="M8.64445 8.77784C8.91951 8.77784 9.1425 8.55491 9.1425 8.27979C9.1425 8.00466 8.91951 7.78174 8.64445 7.78174H7.84863C7.57358 7.78174 7.35059 8.00466 7.35059 8.27979C7.35059 8.55491 7.57358 8.77784 7.84863 8.77784H8.64445Z" fill="#2419CE"/>
<path d="M16.6025 8.77784H17.3983C17.6733 8.77784 17.8963 8.55491 17.8963 8.27979C17.8963 8.00466 17.6733 7.78174 17.3983 7.78174H16.6025C16.3275 7.78174 16.1045 8.00466 16.1045 8.27979C16.1045 8.55484 16.3275 8.77784 16.6025 8.77784Z" fill="#2419CE"/>
<path d="M0.498048 21.3835C0.773104 21.3835 0.996097 21.1605 0.996097 20.8854V5.28927H33.0039V10.2701C33.0039 10.5452 33.2269 10.7681 33.502 10.7681C33.777 10.7681 34 10.5452 34 10.2701V1.43704C34 0.644607 33.3554 0 32.563 0H10.7511C10.4761 0 10.2531 0.222926 10.2531 0.498048C10.2531 0.77317 10.4761 0.996097 10.7511 0.996097H32.5629C32.8061 0.996097 33.0039 1.19392 33.0039 1.43704V4.29318H0.996097V1.43704C0.996097 1.19392 1.19392 0.996097 1.43704 0.996097H8.42698C8.70203 0.996097 8.92503 0.77317 8.92503 0.498048C8.92503 0.222926 8.70203 0 8.42698 0H1.43704C0.644607 0 0 0.644607 0 1.43704V20.8854C0 21.1605 0.222993 21.3835 0.498048 21.3835Z" fill="#2419CE"/>
<path d="M18.3636 16.189C18.6194 16.088 18.7449 15.7987 18.6439 15.5429L16.9492 11.2497C16.8741 11.0595 16.6904 10.9346 16.4859 10.9346C16.2814 10.9346 16.0977 11.0595 16.0227 11.2497L14.3279 15.5429C14.2269 15.7988 14.3524 16.088 14.6083 16.189C14.8641 16.29 15.1534 16.1645 15.2544 15.9086L15.5461 15.1696H17.4258L17.7175 15.9086C17.7948 16.1044 17.9824 16.2239 18.1809 16.2239C18.2416 16.2239 18.3035 16.2127 18.3636 16.189ZM15.9393 14.1735L16.4859 12.7889L17.0325 14.1735H15.9393Z" fill="#2419CE"/>
<path d="M22.8972 16.2239C22.9471 16.2239 22.9977 16.2163 23.0472 16.2007C23.2544 16.1353 23.3951 15.943 23.3951 15.7258V11.4326C23.3951 11.1575 23.1721 10.9346 22.8971 10.9346C22.622 10.9346 22.399 11.1575 22.399 11.4326V14.1496L20.2963 11.1545C20.1715 10.9766 19.9456 10.9003 19.7386 10.9658C19.5314 11.0312 19.3906 11.2234 19.3906 11.4407V15.7258C19.3906 16.0009 19.6136 16.2238 19.8887 16.2238C20.1637 16.2238 20.3867 16.0009 20.3867 15.7258V13.0168L22.4895 16.0119C22.5845 16.1473 22.7379 16.2239 22.8972 16.2239Z" fill="#2419CE"/>
<path d="M28.0326 13.5792C28.0326 11.9974 27.1357 10.9346 25.8009 10.9346H24.585C24.4527 10.9346 24.3258 10.9872 24.2324 11.0808C24.139 11.1744 24.0866 11.3013 24.0869 11.4336L24.0956 15.7268C24.0959 15.859 24.1487 15.9857 24.2425 16.0789C24.3359 16.1717 24.4621 16.2238 24.5937 16.2238H24.5955C24.6322 16.2237 25.499 16.2204 25.8452 16.2143C27.1127 16.1922 28.0326 15.084 28.0326 13.5792ZM25.8277 15.2184C25.6591 15.2214 25.355 15.2237 25.0906 15.2253L25.0839 11.9307H25.8008C26.7118 11.9307 27.0364 12.7823 27.0364 13.5793C27.0365 14.697 26.4294 15.2078 25.8277 15.2184Z" fill="#2419CE"/>
<path d="M8.94033 13.2569C9.10329 13.0185 9.19878 12.7305 9.19878 12.4205C9.19878 11.6012 8.53219 10.9346 7.71287 10.9346H6.46582C6.19077 10.9346 5.96777 11.1575 5.96777 11.4326V15.7258C5.96777 15.8583 6.02057 15.9852 6.1144 16.0787C6.20777 16.1716 6.33414 16.2238 6.46576 16.2238H6.46795C6.46801 16.2238 7.61459 16.2188 7.93062 16.2188C8.84244 16.2188 9.58427 15.477 9.58427 14.5651C9.58434 14.0332 9.33166 13.5596 8.94033 13.2569ZM7.71294 11.9307C7.98301 11.9307 8.20275 12.1504 8.20275 12.4205C8.20275 12.6906 7.98301 12.9104 7.71294 12.9104C7.62129 12.9104 6.96394 12.9116 6.96394 12.9116V11.9307L7.71294 11.9307ZM7.93068 15.2227C7.75338 15.2227 7.31536 15.2242 6.96387 15.2257V13.9087C7.06029 13.9083 7.93068 13.9076 7.93068 13.9076C8.29326 13.9076 8.58824 14.2025 8.58824 14.5651C8.58824 14.9277 8.29326 15.2227 7.93068 15.2227Z" fill="#2419CE"/>
<path d="M13.1036 16.2234C13.2205 16.2234 13.3378 16.1825 13.4324 16.0992C13.6389 15.9176 13.659 15.6028 13.4773 15.3963L12.3454 14.1102C13.067 13.9301 13.6014 13.298 13.6014 12.5479C13.6014 11.658 12.8491 10.9341 11.9245 10.9341H10.7836C10.5087 10.9341 10.2857 11.1569 10.2856 11.4318L10.2842 15.7253C10.2842 16.0004 10.5072 16.2234 10.7822 16.2234C11.0573 16.2234 11.2803 16.0004 11.2803 15.7253V14.4077L12.7295 16.0544C12.8279 16.1663 12.9654 16.2234 13.1036 16.2234ZM11.2813 11.9302H11.9245C12.2936 11.9302 12.6054 12.2131 12.6054 12.548C12.6054 12.8828 12.2936 13.1657 11.9245 13.1657C11.7759 13.1657 11.5156 13.1669 11.2806 13.1679L11.2813 11.9302Z" fill="#2419CE"/>
<path d="M31.8532 7.34048C31.8532 6.84389 31.4493 6.43994 30.9527 6.43994H29.0744C28.5778 6.43994 28.1738 6.84389 28.1738 7.34048V7.79158C27.9465 7.83773 27.7754 8.03868 27.7754 8.2796C27.7754 8.52052 27.9465 8.72147 28.1738 8.76762V9.21872C28.1738 9.71531 28.5778 10.1193 29.0744 10.1193H29.5255C29.5716 10.3466 29.7726 10.5177 30.0135 10.5177C30.2544 10.5177 30.4554 10.3466 30.5015 10.1193H30.9526C31.4492 10.1193 31.8531 9.71531 31.8531 9.21872V7.34048H31.8532ZM30.8571 9.12323H29.1699V8.28033C29.1699 8.28013 29.1699 8.27993 29.1699 8.27967C29.1699 8.2794 29.1699 8.27927 29.1699 8.279V7.4361H30.8571V9.12323Z" fill="#2419CE"/>
<path d="M4.92533 6.43994H3.04702C2.55043 6.43994 2.14648 6.84389 2.14648 7.34048V9.21879C2.14648 9.71537 2.55043 10.1193 3.04702 10.1193H3.49812C3.54427 10.3467 3.74522 10.5178 3.98614 10.5178C4.22707 10.5178 4.42801 10.3467 4.47416 10.1193H4.92526C5.42185 10.1193 5.8258 9.71537 5.8258 9.21879V8.76769C6.05311 8.72153 6.22424 8.52059 6.22424 8.27967C6.22424 8.03874 6.05311 7.83773 5.8258 7.79164V7.34055C5.82587 6.84389 5.42185 6.43994 4.92533 6.43994ZM4.82977 9.12316H3.14258V7.43604H4.82977V9.12316Z" fill="#2419CE"/>
<path d="M29.0743 20.7184H30.9526C31.4492 20.7184 31.8531 20.3144 31.8531 19.8178V17.9396C31.8531 17.443 31.4492 17.0391 30.9526 17.0391H30.5015C30.4554 16.8117 30.2544 16.6406 30.0135 16.6406C29.7726 16.6406 29.5716 16.8117 29.5255 17.0391H29.0744C28.5778 17.0391 28.1738 17.4431 28.1738 17.9396V18.3906C27.9465 18.4368 27.7754 18.6377 27.7754 18.8787C27.7754 19.1196 27.9465 19.3205 28.1738 19.3667V19.8178C28.1738 20.3144 28.5777 20.7184 29.0743 20.7184ZM30.857 18.0351V19.7223H29.1698V18.8793C29.1698 18.8791 29.1698 18.8789 29.1698 18.8787C29.1698 18.8784 29.1698 18.8783 29.1698 18.878V18.0351H30.857Z" fill="#2419CE"/>
<path d="M2.14648 19.8178C2.14648 20.3144 2.55043 20.7183 3.04702 20.7183H4.92533C5.42192 20.7183 5.82587 20.3143 5.82587 19.8178V19.3667C6.05318 19.3205 6.22431 19.1196 6.22431 18.8787C6.22431 18.6377 6.05318 18.4367 5.82587 18.3906V17.9396C5.82587 17.443 5.42192 17.0391 4.92533 17.0391H4.47423C4.42808 16.8117 4.22713 16.6406 3.98621 16.6406C3.74529 16.6406 3.54434 16.8117 3.49819 17.0391H3.04709C2.5505 17.0391 2.14655 17.4431 2.14655 17.9396L2.14648 19.8178ZM3.14258 18.0351H4.82977V19.7223H3.14258V18.0351Z" fill="#2419CE"/>
<path d="M33.7435 29.4991L31.216 28.0975H32.5629C33.3554 28.0975 34 27.4526 34 26.6598V12.5947C34 12.3196 33.777 12.0967 33.5019 12.0967C33.2269 12.0967 33.0039 12.3196 33.0039 12.5947V26.6597C33.0039 26.9033 32.806 27.1014 32.5629 27.1014H30.2691C30.22 26.9538 30.1379 26.8149 30.0207 26.6977L29.3567 26.0337C29.169 25.8459 28.9216 25.7403 28.6574 25.7321L28.6801 23.7652C28.687 23.1651 28.3148 22.6186 27.754 22.4054L21.6547 20.0848C21.2074 19.9145 20.6998 20.0233 20.3613 20.3617C20.0229 20.7002 19.9142 21.2078 20.0844 21.6551L22.1566 27.1014H1.43704C1.19386 27.1014 0.996097 26.9033 0.996097 26.6597V23.2099C0.996097 22.9348 0.773104 22.7119 0.498048 22.7119C0.222993 22.7119 0 22.9348 0 23.2099V26.6597C0 27.4525 0.644607 28.0974 1.43704 28.0974H22.5942C22.8614 28.457 23.2879 28.6806 23.7483 28.6805C23.7538 28.6805 23.7594 28.6804 23.7648 28.6804L25.7319 28.6577C25.74 28.9218 25.8457 29.1692 26.0334 29.357L26.6975 30.021C26.8993 30.2227 27.1642 30.3236 27.4291 30.3236C27.4844 30.3236 27.5396 30.3181 27.5943 30.3093L29.4988 33.7437C29.5898 33.9077 29.7597 34.0002 29.9348 34.0002C30.0165 34.0002 30.0995 33.9801 30.1759 33.9377C30.4165 33.8043 30.5033 33.5012 30.3699 33.2606L28.4262 29.7556L29.7554 28.4263L33.2605 30.37C33.337 30.4125 33.4198 30.4326 33.5015 30.4326C33.6767 30.4326 33.8466 30.34 33.9375 30.176C34.0709 29.9356 33.984 29.6325 33.7435 29.4991ZM23.7533 27.6845C23.7517 27.6845 23.7499 27.6845 23.7483 27.6845C23.5661 27.6845 23.4009 27.5707 23.336 27.4002L21.2729 21.9776L23.4826 24.1873C23.1899 24.7754 23.2871 25.5097 23.7766 25.9992C24.0829 26.3055 24.4853 26.4587 24.8877 26.4587C25.2901 26.4587 25.6925 26.3055 25.9988 25.9992C26.2956 25.7024 26.4591 25.3078 26.4591 24.8881C26.4591 24.4684 26.2956 24.0737 25.9988 23.777C25.5093 23.2876 24.7751 23.1903 24.187 23.483L21.9773 21.2733L27.3999 23.3364C27.572 23.4019 27.6862 23.5697 27.6841 23.7537L27.655 26.2721L26.2716 27.6555L23.7533 27.6845ZM24.8877 24.313C25.035 24.313 25.1823 24.3691 25.2944 24.4812C25.4031 24.5899 25.463 24.7343 25.463 24.888C25.463 25.0416 25.4031 25.1861 25.2945 25.2947C25.0702 25.5191 24.7053 25.519 24.4809 25.2947C24.2567 25.0704 24.2567 24.7055 24.4809 24.4812C24.5931 24.3691 24.7404 24.313 24.8877 24.313ZM26.7264 28.6254C26.7264 28.6094 26.7348 28.6009 26.7376 28.5982L28.5977 26.738C28.6005 26.7352 28.609 26.7267 28.625 26.7267C28.641 26.7267 28.6495 26.7352 28.6523 26.738L29.3163 27.4021C29.3314 27.4172 29.3314 27.4416 29.3163 27.4566L27.4563 29.3167C27.4411 29.3318 27.4167 29.3318 27.4016 29.3167L26.7376 28.6527C26.735 28.65 26.7264 28.6414 26.7264 28.6254Z" fill="#2419CE"/>
<path d="M2.91309 3.14258C3.18815 3.14258 3.41114 2.9196 3.41114 2.64453C3.41114 2.36947 3.18815 2.14648 2.91309 2.14648C2.63802 2.14648 2.41504 2.36947 2.41504 2.64453C2.41504 2.9196 2.63802 3.14258 2.91309 3.14258Z" fill="#2419CE"/>
<path d="M5.19336 3.14258C5.46843 3.14258 5.69141 2.9196 5.69141 2.64453C5.69141 2.36947 5.46843 2.14648 5.19336 2.14648C4.9183 2.14648 4.69531 2.36947 4.69531 2.64453C4.69531 2.9196 4.9183 3.14258 5.19336 3.14258Z" fill="#2419CE"/>
<path d="M7.47461 3.14258C7.74968 3.14258 7.97266 2.9196 7.97266 2.64453C7.97266 2.36947 7.74968 2.14648 7.47461 2.14648C7.19955 2.14648 6.97656 2.36947 6.97656 2.64453C6.97656 2.9196 7.19955 3.14258 7.47461 3.14258Z" fill="#2419CE"/>
</svg>
