<svg width="40" height="40" viewBox="0 0 40 40" fill="none" xmlns="http://www.w3.org/2000/svg">
<path d="M35.0916 31.1035C35.8817 30.017 36.31 28.7094 36.3156 27.366C36.3241 27.1893 36.2621 27.0165 36.1432 26.8856C36.0243 26.7547 35.8582 26.6764 35.6816 26.668C35.3152 26.6543 35.0051 26.936 34.9835 27.302C34.9886 28.3667 34.6606 29.4064 34.0455 30.2755C32.7448 31.9182 30.2767 32.0016 29.7946 32.0016C29.4264 32.0016 29.1279 32.3 29.1279 32.6683C29.1279 33.0365 29.4264 33.3349 29.7946 33.3349C30.384 33.3349 33.4088 33.2276 35.0916 31.1035Z" fill="url(#paint0_linear_428_1341)"/>
<path d="M21.6684 22.6684C21.6684 22.3002 21.3699 22.0017 21.0017 22.0017C20.6335 22.0017 20.335 22.3002 20.335 22.6684C20.335 24.1412 21.5289 25.3352 23.0018 25.3352V26.0019C23.0018 26.3701 23.3002 26.6686 23.6685 26.6686C24.0367 26.6686 24.3352 26.3701 24.3352 26.0019V25.3352C25.808 25.3352 27.002 24.1412 27.002 22.6684C27.002 21.1955 25.808 20.0016 24.3352 20.0016V17.3348C25.0716 17.3348 25.6686 17.9317 25.6686 18.6682C25.6686 19.0364 25.967 19.3349 26.3353 19.3349C26.7035 19.3349 27.002 19.0364 27.002 18.6682C27.002 17.1953 25.808 16.0014 24.3352 16.0014V15.3347C24.3352 14.9665 24.0367 14.668 23.6685 14.668C23.3002 14.668 23.0018 14.9665 23.0018 15.3347V16.0014C21.5289 16.0014 20.335 17.1953 20.335 18.6682C20.335 20.141 21.5289 21.335 23.0018 21.335V24.0018C22.2653 24.0018 21.6684 23.4048 21.6684 22.6684ZM21.6684 18.6682C21.6684 17.9317 22.2653 17.3348 23.0018 17.3348V20.0016C22.2653 20.0016 21.6684 19.4046 21.6684 18.6682ZM24.3352 21.335C25.0716 21.335 25.6686 21.9319 25.6686 22.6684C25.6686 23.4048 25.0716 24.0018 24.3352 24.0018V21.335Z" fill="url(#paint1_linear_428_1341)"/>
<path d="M39.4446 22.5156C37.8018 15.5346 34.1497 11.4897 31.5122 9.37695C34.8197 9.6263 35.8844 11.0024 35.9158 11.0437C36.1246 11.3419 36.5341 11.4174 36.8355 11.2133C37.137 11.0092 37.219 10.601 37.0198 10.2963C36.9718 10.2243 36.0458 8.9016 33.353 8.29624C34.0415 7.7302 34.4488 6.89192 34.4683 6.00079C34.3792 4.52335 33.3507 3.2705 31.9189 2.8953C31.9776 2.41372 32.0074 1.92905 32.0082 1.4439C32.0075 0.996946 31.7829 0.580077 31.41 0.333638C31.0372 0.0871988 30.5656 0.043971 30.1541 0.218508C29.8176 0.370899 29.5049 0.571454 29.2261 0.81387C28.8989 1.1501 28.4485 1.33797 27.9794 1.3339C27.511 1.33719 27.0615 1.1494 26.7346 0.81387C25.5597 -0.27129 23.7481 -0.27129 22.5731 0.81387C22.2459 1.15083 21.7947 1.33881 21.325 1.3339C20.8567 1.33779 20.4072 1.14989 20.081 0.81387C19.8029 0.571974 19.4912 0.371661 19.1556 0.219175C18.7444 0.0458075 18.2738 0.0896257 17.9016 0.335919C17.5295 0.582212 17.3053 0.998325 17.3042 1.44457C17.3042 3.10332 17.6322 6.06213 19.709 8.04889C18.6175 8.71255 17.5982 9.48811 16.6675 10.363V5.33409C16.6675 3.81402 14.5174 2.66729 11.6672 2.66729C8.8171 2.66729 6.66699 3.81402 6.66699 5.33409V12.0511C4.32888 12.2844 2.6668 13.3345 2.6668 14.6679V31.6254C1.05605 32.0581 0 32.9354 0 34.0022V37.3357C0 38.8557 2.1501 40.0024 5.00024 40.0024C7.54904 40.0024 9.5338 39.0844 9.92515 37.8023C11.076 38.4117 12.3658 38.7104 13.6673 38.6691C16.5175 38.6691 18.6676 37.5223 18.6676 36.0023V27.3352C18.6676 25.8151 16.5175 24.6684 13.6673 24.6684C13.3334 24.6681 12.9996 24.6848 12.6673 24.7184V14.6679C12.6673 13.2078 10.6825 12.0958 8.00039 12.0097V7.18018C9.1346 7.75667 10.3955 8.03888 11.6672 8.00089C12.939 8.03888 14.1999 7.75667 15.3341 7.18018V11.7271C14.8947 12.2184 14.4534 12.7538 14.018 13.3471C13.8187 13.644 13.889 14.0453 14.1775 14.2566C14.4659 14.468 14.8698 14.4141 15.0927 14.1345C15.5209 13.5548 15.9798 12.9984 16.4675 12.4678C16.4728 12.4618 16.4775 12.4558 16.4828 12.4504C17.7555 11.036 19.25 9.83829 20.9077 8.90426C21.2345 9.06191 21.5803 9.17686 21.9364 9.24628L20.2177 10.8504C19.9485 11.1018 19.9342 11.5239 20.1857 11.7931C20.4371 12.0622 20.8592 12.0766 21.1284 11.8251L23.7952 9.33762H24.0078V11.3377C24.0078 11.7059 24.3063 12.0044 24.6745 12.0044C25.0427 12.0044 25.3412 11.7059 25.3412 11.3377V9.33429H25.5539L28.2207 11.8217C28.3948 11.9844 28.6425 12.0419 28.8705 11.9724C29.0984 11.903 29.272 11.7172 29.3258 11.4851C29.3796 11.2529 29.3055 11.0097 29.1314 10.847L27.4013 9.23628C27.7554 9.16621 28.0989 9.05081 28.4234 8.89293C30.1855 9.84631 35.9778 13.6132 38.1472 22.8209C39.0906 26.8291 38.7506 29.8953 37.1371 31.9321C35.073 34.5355 31.4915 34.6689 30.7948 34.6689H21.3344C20.9662 34.6689 20.6677 34.9673 20.6677 35.3356C20.6677 35.7038 20.9662 36.0023 21.3344 36.0023H30.7948C31.9282 36.0023 35.7984 35.7682 38.1819 32.7601C40.0606 30.3873 40.486 26.9405 39.4446 22.5156ZM5.00024 32.6688C7.20502 32.6688 8.66709 33.4688 8.66709 34.0022C8.66709 34.5355 7.20502 35.3356 5.00024 35.3356C2.79547 35.3356 1.3334 34.5355 1.3334 34.0022C1.3334 33.4688 2.79547 32.6688 5.00024 32.6688ZM5.00024 38.6691C2.79547 38.6691 1.3334 37.869 1.3334 37.3357V35.8482C2.46761 36.4247 3.7285 36.7069 5.00024 36.669C6.27198 36.7069 7.53288 36.4247 8.66709 35.8482V37.3357C8.66709 37.869 7.20502 38.6691 5.00024 38.6691ZM13.6673 37.3357C11.4626 37.3357 10.0005 36.5356 10.0005 36.0023V29.1813C11.1347 29.7577 12.3956 30.04 13.6673 30.002C14.9391 30.04 16.2 29.7577 17.3342 29.1813V36.0023C17.3342 36.5356 15.8721 37.3357 13.6673 37.3357ZM17.3342 27.3352C17.3342 27.8685 15.8721 28.6686 13.6673 28.6686C11.4626 28.6686 10.0005 27.8685 10.0005 27.3352C10.0005 26.8018 11.4626 26.0018 13.6673 26.0018C15.8721 26.0018 17.3342 26.8018 17.3342 27.3352ZM8.66709 27.3352V32.1561C7.53288 31.5796 6.27198 31.2974 5.00024 31.3354C4.66626 31.3351 4.33249 31.3518 4.0002 31.3854V16.514C5.1344 17.0905 6.3953 17.3727 7.66704 17.3347C8.93878 17.3727 10.1997 17.0905 11.3339 16.514V24.9584C9.72314 25.3911 8.66709 26.2684 8.66709 27.3352ZM11.3339 14.6679C11.3339 15.2012 9.87182 16.0013 7.66704 16.0013C5.46227 16.0013 4.0002 15.2012 4.0002 14.6679C4.0002 14.1345 5.46227 13.3345 7.66704 13.3345C9.87182 13.3345 11.3339 14.1345 11.3339 14.6679ZM11.6672 6.66749C9.46246 6.66749 8.00039 5.86745 8.00039 5.33409C8.00039 4.80073 9.46246 4.00069 11.6672 4.00069C13.872 4.00069 15.3341 4.80073 15.3341 5.33409C15.3341 5.86745 13.872 6.66749 11.6672 6.66749ZM33.135 6.00079C33.135 7.09351 31.9516 7.99022 30.4682 8.00089C30.22 7.99932 29.9728 7.97093 29.7308 7.91622C30.6984 6.88387 31.371 5.61056 31.6782 4.22937C32.4807 4.46583 33.0579 5.16772 33.135 6.00079ZM19.2463 1.85392C19.8093 2.3815 20.5535 2.67268 21.325 2.66729C22.0971 2.67309 22.8418 2.38188 23.4051 1.85392C23.7347 1.5212 24.1836 1.33401 24.6519 1.33401C25.1202 1.33401 25.569 1.5212 25.8986 1.85392C26.4619 2.38228 27.207 2.67354 27.9794 2.66729C28.7516 2.67326 29.4966 2.38204 30.0601 1.85392C30.2449 1.69063 30.4505 1.55253 30.6715 1.44323C30.6715 2.68129 30.4415 5.74211 28.2934 7.42019C27.8101 7.78314 27.2243 7.98363 26.62 7.99289C27.1971 7.00158 27.6539 5.94495 27.9807 4.8454C28.0445 4.61579 27.981 4.36956 27.8141 4.19947C27.6472 4.02938 27.4022 3.96127 27.1714 4.02079C26.9406 4.08032 26.7591 4.25844 26.6953 4.48805C26.3261 5.74129 25.7584 6.92726 25.0139 8.00089H24.3285C23.5855 6.92632 23.0177 5.74062 22.6464 4.48805C22.5476 4.13328 22.1798 3.92583 21.8251 4.02469C21.4703 4.12356 21.2628 4.4913 21.3617 4.84607C21.6888 5.94656 22.1461 7.00409 22.7238 7.99622C22.1074 7.99306 21.5084 7.79129 21.0157 7.42086C18.8676 5.74344 18.6376 2.68263 18.6376 1.44857C18.8585 1.55442 19.0634 1.69088 19.2463 1.85392Z" fill="url(#paint2_linear_428_1341)"/>
<path d="M35.0916 31.1044C35.8817 30.0179 36.31 28.7104 36.3156 27.3669C36.3241 27.1903 36.2621 27.0175 36.1432 26.8866C36.0243 26.7557 35.8582 26.6773 35.6816 26.6689C35.3155 26.6559 35.0057 26.9372 34.9835 27.3029C34.9886 28.3676 34.6606 29.4073 34.0455 30.2764C32.7448 31.9191 30.2767 32.0025 29.7946 32.0025C29.4264 32.0025 29.1279 32.301 29.1279 32.6692C29.1279 33.0374 29.4264 33.3359 29.7946 33.3359C30.384 33.3359 33.4088 33.2285 35.0916 31.1044Z" fill="url(#paint3_linear_428_1341)"/>
<defs>
<linearGradient id="paint0_linear_428_1341" x1="32.7222" y1="26.6675" x2="32.7222" y2="33.3349" gradientUnits="userSpaceOnUse">
<stop stop-color="#3D34BE"/>
<stop offset="1" stop-color="#5147DD"/>
</linearGradient>
<linearGradient id="paint1_linear_428_1341" x1="23.6685" y1="14.668" x2="23.6685" y2="26.6686" gradientUnits="userSpaceOnUse">
<stop stop-color="#3D34BE"/>
<stop offset="1" stop-color="#5147DD"/>
</linearGradient>
<linearGradient id="paint2_linear_428_1341" x1="19.9999" y1="0" x2="19.9999" y2="40.0024" gradientUnits="userSpaceOnUse">
<stop stop-color="#3D34BE"/>
<stop offset="1" stop-color="#5147DD"/>
</linearGradient>
<linearGradient id="paint3_linear_428_1341" x1="32.7222" y1="26.6685" x2="32.7222" y2="33.3359" gradientUnits="userSpaceOnUse">
<stop stop-color="#3D34BE"/>
<stop offset="1" stop-color="#5147DD"/>
</linearGradient>
</defs>
</svg>
