<svg width="159" height="43" viewBox="0 0 159 43" fill="none" xmlns="http://www.w3.org/2000/svg">
<path d="M82.7385 42.1401V21.6101H79.6055V42.1401H82.7385ZM79.6055 14.3711H82.6305V17.7211H79.6055V14.3711Z" fill="#FFA713"/>
<path d="M86.7393 0H89.7643V28.958H86.7393V0Z" fill="#00A7DC"/>
<path d="M72.4749 0H75.5009V28.958H72.4759L72.4749 0ZM16.5049 8.968H19.5299V28.958H16.5039V8.968H16.5049Z" fill="#FFA713"/>
<path d="M101.109 8.96484C95.4906 8.96484 92.1406 13.5028 92.1406 19.3378C92.1406 25.0648 95.7066 28.9538 101.542 28.9538C104.567 28.9538 106.728 28.3058 107.917 27.7658L108.133 27.6578V25.0648C106.944 25.4968 104.351 26.2528 101.974 26.2528C98.5156 26.2528 95.4906 24.3078 95.3826 19.6618H108.889C108.889 19.3378 108.997 18.7978 108.997 18.0418C108.997 14.4748 107.376 8.96484 101.109 8.96484ZM105.648 17.0688H95.4906C95.8146 14.6918 97.3276 11.4498 100.785 11.4498C104.783 11.4498 105.756 14.9078 105.648 17.0688ZM126.934 16.0958C127.042 12.2058 124.989 8.96484 119.262 8.96484C116.777 8.96484 114.616 9.28884 112.995 10.2608V12.8548C114.616 12.0978 116.885 11.4498 118.722 11.4498C122.828 11.6658 123.692 14.2598 123.692 15.8798V17.6088C115.156 15.0158 111.266 18.6888 111.374 23.4438C111.482 26.2538 113.427 28.9538 117.425 28.9538C120.127 28.9538 122.612 28.3058 123.8 26.9008V28.9538H126.934V16.0958ZM123.8 23.4438C122.504 24.9568 120.991 26.4688 118.398 26.4688C116.561 26.4688 114.724 25.2808 114.724 23.0118C114.724 19.2298 119.586 19.1218 123.8 20.3098V23.4438Z" fill="#00A7DC"/>
<path d="M69.667 15.1239C68.586 11.0179 65.777 9.07287 61.779 8.96387H60.589C60.481 8.96387 60.265 8.96387 60.157 9.07287C57.564 9.50487 55.943 11.2329 55.943 11.2329V8.96487H52.917V38.0299H55.943V26.8999C55.943 26.8999 57.888 28.7369 60.589 28.9529H62.318C65.452 28.6289 67.721 27.2249 69.018 24.4149C70.422 21.3899 70.53 18.2559 69.666 15.1229L69.667 15.1239ZM66.965 19.5539V19.9859C66.857 20.7419 66.641 21.4989 66.533 22.0389C66.317 22.5789 65.344 24.9569 62.967 25.6049C62.535 25.7129 62.103 25.8209 61.563 25.8209C61.563 25.8209 57.673 25.8209 55.943 22.6869V15.0159C55.943 14.9079 57.133 12.4229 60.374 11.7739C60.806 11.6659 62.211 11.5579 63.508 11.9899H63.616L63.832 12.0979L64.048 12.2059L64.264 12.3149C65.236 12.9629 66.965 14.6919 67.074 18.2569C67.074 18.7969 66.965 19.1219 66.965 19.5539Z" fill="#FFA713"/>
<path d="M132.445 11.3448V8.96777H129.204V28.9578H132.445V17.8278C132.445 15.6678 132.877 14.5868 132.985 14.4778L133.634 13.5058C133.958 13.1818 134.606 12.6418 135.579 12.2098C135.903 12.1018 136.227 11.9938 136.659 11.8858H137.199C137.632 11.7778 138.064 11.7778 138.604 11.6698H140.117V8.96777C135.363 8.75177 132.985 10.9128 132.445 11.3448Z" fill="#00A7DC"/>
<path d="M14.1269 22.26C13.9109 19.99 12.5069 18.694 10.3449 18.045C9.80488 17.829 9.15689 17.721 8.61588 17.613C7.42789 17.289 6.23888 17.073 5.15888 16.641C3.10588 15.776 3.53788 13.291 4.72588 12.427C5.51677 11.8688 6.45991 11.5669 7.42788 11.562H9.26488C9.91288 11.67 10.4529 11.67 11.1019 11.886C11.8381 12.0893 12.5598 12.3422 13.2619 12.643V10.049C13.1539 10.049 12.6139 9.83297 12.6139 9.83297C10.4539 9.18497 8.29188 8.86097 6.02288 9.18497C3.10588 9.61697 0.512885 11.67 0.835885 15.452C0.944885 16.965 1.70088 18.153 3.10588 18.694C4.18588 19.234 5.48288 19.45 6.56288 19.774C7.53588 20.098 8.61588 20.422 9.58888 20.747C10.2369 20.963 10.6689 21.503 10.7769 22.151C11.2089 23.664 10.6689 24.961 9.04788 25.717C7.64388 26.365 6.13089 26.365 4.61788 26.257C1.91688 26.041 0.835885 25.177 0.835885 25.177V27.662C0.835885 27.662 1.59288 27.986 2.56588 28.31L3.86188 28.634C5.37488 28.85 6.88688 28.85 8.50788 28.526C9.48088 28.31 10.4529 27.986 11.3179 27.554C13.3709 26.69 14.4509 24.638 14.1269 22.26ZM16.5039 2.91797H19.5299V6.26797H16.5039V2.91797Z" fill="#FFA713"/>
<path d="M158.267 14.2598C157.187 10.0448 153.729 9.28884 152.973 9.07284H152.649C150.704 8.85684 149.299 9.07284 148.11 9.50484L147.894 9.61284C146.381 10.2618 145.733 11.2328 145.733 11.2328V8.96484H142.492V28.8458H145.733V16.6358C145.733 14.0428 147.894 11.8818 150.596 11.8818H150.704C150.704 11.8818 153.081 11.6658 154.485 13.5028L154.593 13.6108L154.81 13.9348C154.918 14.1508 155.026 14.2588 155.134 14.4748C155.134 14.5838 155.242 14.6918 155.242 14.9078C155.35 15.3398 155.566 16.4198 155.566 18.4728V28.8458H158.807V16.9618C158.591 15.8818 158.483 15.0168 158.267 14.2598Z" fill="#00A7DC"/>
<path d="M42.7612 8.96808C38.8712 9.07608 37.1422 10.9121 36.6012 11.6681L36.3862 11.9931V11.7771L36.2782 11.6691L36.1702 11.4531C35.4132 10.3731 34.3332 9.72408 33.7922 9.50808C32.2802 8.96808 30.9832 8.96808 30.7672 8.96808H30.6592C28.7142 8.86008 27.3092 9.61608 27.3092 9.61608C25.6892 10.2641 24.9322 11.2361 24.9322 11.2361V8.96808H21.9072V28.8491H24.9322V16.8551C24.9322 16.0991 25.0402 15.5591 25.1482 15.2351C25.6882 13.0741 27.6332 11.5611 29.9032 11.5611C31.9552 11.5611 33.5762 12.6411 34.3332 14.3711C34.5492 14.9111 34.6572 15.5591 34.6572 16.2071V28.7411H37.6822V16.4231C37.6822 13.6131 39.8432 11.5611 42.5452 11.5611C43.5172 11.5611 44.4902 11.8851 45.2462 12.4251C46.5432 13.2901 47.4072 14.5861 47.4072 16.3151V28.7411H50.5402V16.7471C50.5402 15.1271 50.2162 13.8301 49.6762 12.7491C47.7312 9.29208 44.1662 8.96808 42.7612 8.96808Z" fill="#FFA713"/>
</svg>
