<svg width="159" height="19" viewBox="0 0 159 19" fill="none" xmlns="http://www.w3.org/2000/svg">
<path d="M16.6177 4.32325L16.3177 5.55325C16.3021 5.63849 16.2567 5.71543 16.1897 5.77036C16.1227 5.8253 16.0384 5.85467 15.9517 5.85325H8.63571C8.14871 5.85325 7.87171 5.99725 7.80571 6.28525L7.70571 6.68525C7.66071 6.95025 7.86071 7.08325 8.30371 7.08325H13.0587C14.6107 7.08325 15.3867 7.66025 15.3867 8.81325C15.3867 9.10125 15.3417 9.42325 15.2537 9.77725L14.7547 11.8053C14.5576 12.6143 14.088 13.3308 13.4247 13.8343C12.7377 14.3663 11.9167 14.6323 10.9647 14.6323H1.15371C1.09873 14.6294 1.04511 14.6142 0.996834 14.5878C0.948554 14.5613 0.906861 14.5243 0.874857 14.4795C0.842854 14.4348 0.821364 14.3833 0.811989 14.3291C0.802613 14.2748 0.805593 14.2192 0.820706 14.1663L1.12071 12.9363C1.14303 12.8575 1.19112 12.7885 1.25728 12.7402C1.32345 12.692 1.40388 12.6674 1.48571 12.6703H8.83571C9.27771 12.6703 9.54471 12.4933 9.63271 12.1383L9.73271 11.8053C9.82171 11.4513 9.63271 11.2733 9.16771 11.2733H4.27971C2.81671 11.2733 2.08571 10.6973 2.08571 9.54425C2.09071 9.23025 2.13571 8.91725 2.21871 8.61425L2.71771 6.55125C2.91771 5.75325 3.39371 5.11125 4.14771 4.62325C4.89966 4.1359 5.77869 3.88127 6.67471 3.89125H16.2517C16.3059 3.89036 16.3595 3.90151 16.4089 3.92388C16.4582 3.94625 16.502 3.97929 16.537 4.02061C16.572 4.06194 16.5974 4.11052 16.6113 4.16286C16.6253 4.21519 16.6275 4.26998 16.6177 4.32325ZM31.0487 7.11625L29.9847 11.4393C29.4527 13.5683 28.0897 14.6323 25.8947 14.6323H21.5387C20.8507 14.6323 20.4857 14.2773 20.4407 13.5683H20.3747L19.1777 18.5223C19.1629 18.572 19.132 18.6154 19.0898 18.6456C19.0476 18.6758 18.9966 18.6912 18.9447 18.6893H14.0227C13.9892 18.6896 13.9559 18.6827 13.9253 18.669C13.8947 18.6552 13.8674 18.635 13.8454 18.6098C13.8233 18.5845 13.807 18.5547 13.7976 18.5225C13.7881 18.4903 13.7858 18.4564 13.7907 18.4233L17.3817 4.05725C17.3947 4.01278 17.4206 3.9732 17.4563 3.94362C17.4919 3.91403 17.5356 3.89579 17.5817 3.89125H22.2037C22.2372 3.89108 22.2704 3.89812 22.301 3.91189C22.3316 3.92566 22.3588 3.94584 22.3809 3.97107C22.403 3.99629 22.4194 4.02597 22.4291 4.05809C22.4387 4.09022 22.4413 4.12403 22.4367 4.15725C22.4027 4.39025 22.6367 4.52325 22.8017 4.39025C23.1787 4.05725 23.5447 3.89025 23.8997 3.89025H28.5547C30.3067 3.89025 31.1817 4.62225 31.1817 6.08625C31.1777 6.43325 31.1327 6.77925 31.0487 7.11625ZM25.7617 6.75125C25.7847 6.65325 25.7957 6.55225 25.7947 6.45125C25.7947 6.14125 25.5847 5.98625 25.1637 5.98625H23.0017C22.5367 5.98625 22.2367 6.24125 22.1037 6.75125L20.8397 11.7393C20.8145 11.8372 20.8034 11.9382 20.8067 12.0393C20.8067 12.3713 20.9957 12.5373 21.3727 12.5373H23.5337C24.0437 12.5373 24.3647 12.2713 24.4977 11.7393L25.7617 6.75125ZM46.1457 6.98325L45.0487 11.5063C44.7827 12.5483 44.3837 13.3133 43.8517 13.8003C43.2527 14.3553 42.3997 14.6323 41.2917 14.6323H32.6117C31.0157 14.6323 30.2177 14.0223 30.2177 12.8023C30.2177 12.4483 30.2837 12.0163 30.4177 11.5063L31.5477 6.98425C31.7917 5.94225 32.1797 5.17725 32.7117 4.68925C33.3317 4.15725 34.1857 3.89125 35.2717 3.89125H43.9837C45.5577 3.89125 46.3447 4.50125 46.3447 5.72025C46.3447 6.07525 46.2787 6.49625 46.1447 6.98425L46.1457 6.98325ZM40.8257 6.78425C40.8597 6.68725 40.8817 6.58725 40.8917 6.48425C40.8917 6.15225 40.6817 5.98625 40.2597 5.98625H37.9327C37.4447 5.98625 37.1347 6.25225 37.0017 6.78425L35.7717 11.7063C35.7347 11.8133 35.7117 11.9253 35.7047 12.0383C35.7047 12.3713 35.9047 12.5373 36.3027 12.5373H38.6307C39.1407 12.5373 39.4617 12.2603 39.5947 11.7063L40.8247 6.78425H40.8257ZM57.8847 4.58925L57.4187 6.45225C57.3896 6.5726 57.3218 6.68007 57.2257 6.75812C57.1296 6.83617 57.0105 6.88049 56.8867 6.88425H54.5927C53.7057 6.88425 53.0627 6.99425 52.6627 7.21625C52.2647 7.43825 51.9987 7.88125 51.8657 8.54625L50.4357 14.2003C50.4066 14.3206 50.3388 14.4281 50.2427 14.5061C50.1466 14.5842 50.0275 14.6285 49.9037 14.6323H45.6807C45.5938 14.6349 45.5074 14.6174 45.4284 14.5811C45.3493 14.5449 45.2797 14.4909 45.2249 14.4234C45.1701 14.3558 45.1317 14.2765 45.1126 14.1917C45.0935 14.1069 45.0942 14.0188 45.1147 13.9343L47.5097 4.32425C47.5401 4.19831 47.6128 4.08662 47.7156 4.00781C47.8184 3.92901 47.9452 3.88786 48.0747 3.89125H51.8987C51.9827 3.89397 52.065 3.91536 52.1397 3.95387C52.2144 3.99237 52.2796 4.04702 52.3305 4.11386C52.3815 4.18069 52.4169 4.25803 52.4342 4.34026C52.4515 4.42249 52.4503 4.50755 52.4307 4.58925L52.1647 5.62025H52.2317C52.6517 4.95525 53.0957 4.50025 53.5617 4.25725C54.0267 4.01325 54.6477 3.89125 55.4237 3.89125H57.3187C57.4056 3.88865 57.492 3.90614 57.571 3.94237C57.6501 3.9786 57.7197 4.03259 57.7745 4.10014C57.8293 4.16769 57.8677 4.24696 57.8868 4.3318C57.9059 4.41664 57.9052 4.50474 57.8847 4.58925ZM70.0547 4.58925L69.8227 5.55425C69.7921 5.68018 69.7192 5.79177 69.6161 5.8704C69.5131 5.94903 69.3862 5.98992 69.2567 5.98625H65.8657C65.7361 5.98239 65.6092 6.02322 65.5061 6.10187C65.403 6.18053 65.3302 6.29224 65.2997 6.41825L64.0027 11.7383C63.9692 11.8354 63.947 11.936 63.9367 12.0383C63.9367 12.3713 64.1807 12.5373 64.6677 12.5373H67.8937C67.9805 12.5348 68.0668 12.5524 68.1457 12.5887C68.2246 12.625 68.2941 12.679 68.3488 12.7465C68.4035 12.8141 68.4418 12.8933 68.4609 12.9781C68.4799 13.0628 68.4792 13.1508 68.4587 13.2353L68.2257 14.2003C68.1953 14.3261 68.1226 14.4377 68.0197 14.5163C67.9169 14.5949 67.7901 14.6359 67.6607 14.6323H60.7777C60.0677 14.6323 59.5137 14.4433 59.1147 14.0673C58.7157 13.6903 58.5157 13.1693 58.5157 12.5043C58.5127 12.1903 58.5457 11.8783 58.6157 11.5733L59.8457 6.71825C59.8726 6.63164 59.8783 6.53983 59.8622 6.45058C59.8461 6.36132 59.8088 6.27725 59.7534 6.20546C59.698 6.13366 59.6261 6.07627 59.5438 6.03811C59.4616 5.99996 59.3713 5.98217 59.2807 5.98625H58.4827C58.392 5.99057 58.3017 5.97293 58.2193 5.93485C58.1369 5.89677 58.0649 5.83936 58.0094 5.7675C57.954 5.69565 57.9167 5.61147 57.9007 5.52211C57.8847 5.43276 57.8906 5.34087 57.9177 5.25425L58.1507 4.32425C58.1811 4.19831 58.2538 4.08662 58.3566 4.00781C58.4594 3.92901 58.5862 3.88786 58.7157 3.89125H60.0787C60.2082 3.89492 60.3351 3.85403 60.4381 3.7754C60.5412 3.69677 60.6141 3.58517 60.6447 3.45925L61.0097 1.99625C61.0401 1.87014 61.113 1.75832 61.216 1.67949C61.319 1.60067 61.446 1.55963 61.5757 1.56325H65.7657C65.8527 1.56076 65.939 1.57838 66.018 1.61473C66.0971 1.65109 66.1666 1.7052 66.2213 1.77285C66.276 1.8405 66.3143 1.91986 66.3333 2.00475C66.3523 2.08963 66.3514 2.17776 66.3307 2.26225L66.1307 3.15925C66.1049 3.24324 66.0991 3.33207 66.1136 3.41872C66.1281 3.50537 66.1625 3.58745 66.2142 3.65847C66.266 3.7295 66.3335 3.7875 66.4115 3.82791C66.4895 3.86831 66.5759 3.89 66.6637 3.89125H69.4897C69.5766 3.88885 69.6628 3.90648 69.7418 3.94277C69.8207 3.97906 69.8903 4.03305 69.945 4.10055C69.9997 4.16804 70.0382 4.24723 70.0574 4.33198C70.0766 4.41673 70.075 4.50476 70.0547 4.58925ZM84.5207 4.38925L84.2547 5.52025C84.2333 5.61169 84.1827 5.69366 84.1105 5.75375C84.0383 5.81384 83.9485 5.84877 83.8547 5.85325H76.5727C76.0847 5.85325 75.8077 5.99725 75.7417 6.28525L75.6417 6.68525C75.5747 6.95025 75.7747 7.08325 76.2407 7.08325H80.9957C82.5477 7.08325 83.3237 7.66025 83.3237 8.81325C83.3237 9.10125 83.2787 9.42325 83.1907 9.77725L82.6907 11.8053C82.485 12.619 82.0032 13.3361 81.3277 13.8343C80.6407 14.3663 79.8317 14.6323 78.9007 14.6323H69.1577C69.0942 14.6293 69.0321 14.6123 68.9759 14.5826C68.9197 14.5529 68.8708 14.5112 68.8326 14.4603C68.7944 14.4095 68.7678 14.3509 68.7549 14.2887C68.742 14.2264 68.7429 14.1621 68.7577 14.1003L69.0237 12.9703C69.0512 12.885 69.1044 12.8104 69.176 12.7567C69.2477 12.703 69.3342 12.6728 69.4237 12.6703H76.7727C77.2157 12.6703 77.4817 12.4933 77.5707 12.1383L77.6707 11.8063C77.7587 11.4513 77.5707 11.2733 77.1047 11.2733H72.2177C70.7327 11.2733 69.9897 10.6973 69.9897 9.54425C69.9947 9.23025 70.0397 8.91725 70.1227 8.61425L70.6547 6.55125C70.8317 5.75325 71.3087 5.11125 72.0847 4.62325C72.8392 4.1416 73.7166 3.88748 74.6117 3.89125H84.1217C84.1818 3.89512 84.2403 3.91145 84.2937 3.93922C84.3471 3.96699 84.3941 4.00558 84.4318 4.05254C84.4694 4.09949 84.4968 4.15377 84.5123 4.21192C84.5278 4.27006 84.531 4.3308 84.5217 4.39025L84.5207 4.38925ZM97.5887 4.52325L94.9947 6.25225C94.9283 6.29253 94.8764 6.3529 94.8465 6.42464C94.8167 6.49637 94.8104 6.57574 94.8287 6.65125L97.3227 14.1663C97.3376 14.2191 97.3405 14.2746 97.3311 14.3287C97.3217 14.3828 97.3002 14.4341 97.2684 14.4788C97.2365 14.5235 97.195 14.5605 97.147 14.5871C97.0989 14.6136 97.0455 14.6291 96.9907 14.6323H91.5037C91.4276 14.628 91.3546 14.6001 91.2951 14.5524C91.2356 14.5048 91.1924 14.4397 91.1717 14.3663L90.1067 10.1103C90.0895 10.0586 90.0609 10.0114 90.0231 9.97223C89.9854 9.93302 89.9393 9.90272 89.8883 9.88356C89.8374 9.8644 89.7828 9.85685 89.7285 9.86147C89.6742 9.86609 89.6217 9.88275 89.5747 9.91025L89.0097 10.2763C88.9441 10.3261 88.8973 10.3965 88.8767 10.4763L87.8787 14.3663C87.858 14.4397 87.8148 14.5048 87.7553 14.5524C87.6958 14.6001 87.6229 14.628 87.5467 14.6323H82.8907C82.8395 14.6283 82.7896 14.6137 82.7444 14.5892C82.6992 14.5648 82.6596 14.5311 82.6283 14.4903C82.597 14.4496 82.5746 14.4027 82.5626 14.3527C82.5506 14.3027 82.5493 14.2508 82.5587 14.2003L86.0167 0.267252C86.0389 0.188119 86.087 0.118751 86.1534 0.0703174C86.2198 0.0218841 86.3006 -0.00279575 86.3827 0.000251899H91.0387C91.0901 0.00413814 91.14 0.0188179 91.1853 0.0433313C91.2306 0.0678447 91.2702 0.10164 91.3015 0.142509C91.3329 0.183377 91.3552 0.230398 91.3671 0.280499C91.3791 0.330599 91.3803 0.38265 91.3707 0.433252L89.7747 6.75125C89.7625 6.82191 89.7713 6.8946 89.8 6.9603C89.8288 7.026 89.8762 7.08181 89.9364 7.12079C89.9966 7.15978 90.0669 7.18023 90.1386 7.1796C90.2103 7.17897 90.2802 7.15729 90.3397 7.11725L95.0617 3.95725C95.1204 3.91608 95.19 3.89312 95.2617 3.89125H97.3897C97.7227 3.89125 97.8877 4.35725 97.5887 4.52325ZM113.285 6.95025L112.42 10.4093H103.409L103.143 11.4393C103.118 11.5603 103.107 11.6833 103.109 11.8053C103.109 12.2933 103.398 12.5373 103.974 12.5373H111.656L111.157 14.6323H99.9497C98.3537 14.6323 97.5557 14.0223 97.5557 12.8033C97.5557 12.4263 97.6227 11.9723 97.7557 11.4403L98.8527 6.95025C99.1187 5.90825 99.5287 5.14425 100.083 4.65625C100.682 4.14625 101.524 3.89125 102.611 3.89125H111.057C112.675 3.89125 113.484 4.50125 113.484 5.72025C113.484 6.07525 113.418 6.48525 113.285 6.95025ZM108.064 6.81725C108.087 6.69725 108.098 6.57425 108.097 6.45125C108.097 6.14125 107.876 5.98625 107.432 5.98625H105.304C104.772 5.98625 104.428 6.26325 104.273 6.81725L103.907 8.31425H107.698L108.064 6.81725ZM128.614 6.95025L127.75 10.4093H118.738L118.472 11.4393C118.448 11.5603 118.437 11.6833 118.439 11.8053C118.439 12.2933 118.738 12.5373 119.337 12.5373H127.018L126.486 14.6323H115.28C113.684 14.6323 112.885 14.0223 112.885 12.8033C112.885 12.4263 112.952 11.9723 113.085 11.4403L114.216 6.95025C114.459 5.90825 114.858 5.14425 115.413 4.65625C116.033 4.14625 116.876 3.89125 117.94 3.89125H126.386C128.005 3.89125 128.814 4.50125 128.814 5.72025C128.814 6.07525 128.747 6.48525 128.614 6.95025ZM123.393 6.81725C123.416 6.69725 123.427 6.57425 123.427 6.45125C123.427 6.14125 123.205 5.98625 122.762 5.98625H120.633C120.101 5.98625 119.769 6.26325 119.636 6.81725L119.27 8.31425H123.028L123.393 6.81725ZM145.207 0.267252L141.649 14.4663C141.636 14.5104 141.61 14.5498 141.574 14.5793C141.539 14.6088 141.496 14.6273 141.45 14.6323H136.661C136.61 14.6323 136.561 14.616 136.521 14.586C136.48 14.5559 136.45 14.5136 136.436 14.4653C136.426 14.4329 136.423 14.3987 136.429 14.3653C136.426 14.3073 136.402 14.2525 136.361 14.2116C136.32 14.1707 136.265 14.1467 136.207 14.1443C136.168 14.1424 136.13 14.15 136.096 14.1663C135.741 14.4763 135.42 14.6323 135.132 14.6323H130.443C128.692 14.6323 127.816 13.9003 127.816 12.4373C127.818 12.0783 127.863 11.7213 127.949 11.3733L129.046 7.08325C129.578 4.95525 130.942 3.89125 133.137 3.89125H137.46C138.169 3.89125 138.546 4.23525 138.59 4.92125H138.623L139.821 0.166252C139.835 0.116579 139.866 0.0732095 139.908 0.0432521C139.95 0.0134002 140.001 -0.00170953 140.053 0.000251899H144.975C145.008 -6.42179e-05 145.041 0.00692814 145.072 0.0207435C145.103 0.0345589 145.13 0.0548657 145.152 0.0802518C145.174 0.105293 145.191 0.134918 145.2 0.16705C145.21 0.199181 145.213 0.23304 145.208 0.266252L145.207 0.267252ZM138.191 6.75125C138.216 6.65325 138.227 6.55225 138.224 6.45125C138.224 6.14125 138.025 5.98625 137.626 5.98625H135.497C134.988 5.98625 134.666 6.24125 134.533 6.75125L133.269 11.7393C133.235 11.8364 133.213 11.937 133.203 12.0393C133.203 12.3713 133.425 12.5373 133.868 12.5373H135.996C136.484 12.5373 136.794 12.2713 136.927 11.7393L138.191 6.75125ZM158.575 7.71525L156.879 14.4653C156.872 14.5069 156.853 14.5455 156.823 14.5753C156.793 14.6052 156.754 14.6248 156.713 14.6313H151.958C151.928 14.632 151.899 14.6262 151.872 14.6143C151.845 14.6024 151.821 14.5846 151.802 14.5623C151.783 14.54 151.769 14.5137 151.762 14.4853C151.754 14.4569 151.753 14.4272 151.758 14.3983L151.991 13.4353H151.958C151.603 14.2333 150.827 14.6323 149.63 14.6323H145.573C143.91 14.6323 143.079 14.0223 143.079 12.8023C143.079 12.4263 143.157 11.9823 143.312 11.4723L143.545 10.4753C143.833 9.36725 144.265 8.56925 144.841 8.08125C145.418 7.59325 146.238 7.34925 147.302 7.34925H153.122C153.159 7.34483 153.194 7.33002 153.224 7.30651C153.253 7.283 153.275 7.25173 153.288 7.21625L153.454 6.68425C153.463 6.61789 153.463 6.55061 153.454 6.48425C153.454 6.15225 153.232 5.98625 152.789 5.98625H145.407C145.38 5.98221 145.355 5.97286 145.332 5.95878C145.309 5.94469 145.289 5.92615 145.274 5.90425C145.258 5.88274 145.247 5.85821 145.241 5.83222C145.236 5.80622 145.235 5.77933 145.241 5.75325L145.673 4.02325C145.685 3.98765 145.707 3.95626 145.736 3.93271C145.766 3.90917 145.801 3.89445 145.839 3.89025H155.981C157.866 3.89025 158.808 4.64525 158.808 6.15225C158.808 6.59525 158.73 7.11725 158.575 7.71525ZM152.689 9.67725C152.694 9.64845 152.693 9.61884 152.685 9.59062C152.677 9.5624 152.663 9.5363 152.644 9.51425C152.625 9.49225 152.601 9.47461 152.574 9.46254C152.548 9.45046 152.519 9.44423 152.49 9.44425H150.361C149.896 9.44425 149.574 9.52225 149.397 9.67725C149.22 9.83225 149.087 10.0543 148.998 10.3423L148.632 11.6393C148.607 11.7593 148.596 11.8823 148.599 12.0053C148.599 12.3603 148.909 12.5373 149.53 12.5373H150.993C151.414 12.5373 151.703 12.4483 151.858 12.2713C152.013 12.0933 152.157 11.7393 152.29 11.2073L152.689 9.67725Z" fill="#E80222"/>
</svg>
