<svg width="32" height="28" viewBox="0 0 32 28" fill="none" xmlns="http://www.w3.org/2000/svg">
<g filter="url(#filter0_bi_149_385)">
<circle cx="14" cy="14" r="14" fill="white" fill-opacity="0.13"/>
</g>
<g filter="url(#filter1_b_149_385)">
<path d="M31.3494 2.72951C30.4831 1.86203 29.0763 1.86257 28.2088 2.72951L14.074 16.8648L7.79173 10.5826C6.92425 9.71511 5.51809 9.71511 4.65061 10.5826C3.78313 11.4501 3.78313 12.8562 4.65061 13.7237L12.5031 21.5762C12.9366 22.0097 13.505 22.227 14.0734 22.227C14.6419 22.227 15.2108 22.0103 15.6443 21.5762L31.3494 5.87057C32.2169 5.0037 32.2169 3.59693 31.3494 2.72951Z" fill="url(#paint0_linear_149_385)"/>
</g>
<defs>
<filter id="filter0_bi_149_385" x="-10.9" y="-10.9" width="49.8" height="49.8" filterUnits="userSpaceOnUse" color-interpolation-filters="sRGB">
<feFlood flood-opacity="0" result="BackgroundImageFix"/>
<feGaussianBlur in="BackgroundImageFix" stdDeviation="5.45"/>
<feComposite in2="SourceAlpha" operator="in" result="effect1_backgroundBlur_149_385"/>
<feBlend mode="normal" in="SourceGraphic" in2="effect1_backgroundBlur_149_385" result="shape"/>
<feColorMatrix in="SourceAlpha" type="matrix" values="0 0 0 0 0 0 0 0 0 0 0 0 0 0 0 0 0 0 127 0" result="hardAlpha"/>
<feOffset/>
<feGaussianBlur stdDeviation="10.85"/>
<feComposite in2="hardAlpha" operator="arithmetic" k2="-1" k3="1"/>
<feColorMatrix type="matrix" values="0 0 0 0 1 0 0 0 0 1 0 0 0 0 1 0 0 0 0.15 0"/>
<feBlend mode="normal" in2="shape" result="effect2_innerShadow_149_385"/>
</filter>
<filter id="filter1_b_149_385" x="-28.8" y="-30.7209" width="93.6" height="85.7479" filterUnits="userSpaceOnUse" color-interpolation-filters="sRGB">
<feFlood flood-opacity="0" result="BackgroundImageFix"/>
<feGaussianBlur in="BackgroundImageFix" stdDeviation="16.4"/>
<feComposite in2="SourceAlpha" operator="in" result="effect1_backgroundBlur_149_385"/>
<feBlend mode="normal" in="SourceGraphic" in2="effect1_backgroundBlur_149_385" result="shape"/>
</filter>
<linearGradient id="paint0_linear_149_385" x1="14" y1="22" x2="34" y2="0.5" gradientUnits="userSpaceOnUse">
<stop stop-color="white"/>
<stop offset="1" stop-color="white" stop-opacity="0"/>
</linearGradient>
</defs>
</svg>
