<svg width="52" height="36" viewBox="0 0 52 36" fill="none" xmlns="http://www.w3.org/2000/svg">
<path d="M49.1295 30.1341H2.87133C1.42057 30.1341 0.240234 28.9542 0.240234 27.5037V2.63046C0.240234 1.18002 1.42057 0 2.87133 0H49.1295C50.5797 0 51.7602 1.18002 51.7602 2.63046V27.5037C51.7602 28.9542 50.5797 30.1341 49.1295 30.1341ZM2.87133 2.12483C2.59228 2.12483 2.36486 2.35163 2.36486 2.63046V27.5037C2.36486 27.7825 2.59228 28.0094 2.87133 28.0094H49.1295C49.4084 28.0094 49.6355 27.7825 49.6355 27.5037V2.63046C49.6355 2.35163 49.4085 2.12483 49.1295 2.12483H2.87133Z" fill="url(#paint0_linear_428_1442)"/>
<path d="M20.4996 23.1407C20.1507 22.9499 19.9238 22.5942 19.9238 22.1968V7.9374C19.9238 7.53975 20.1461 7.17564 20.4996 6.99322C20.8529 6.8109 21.2781 6.84129 21.6021 7.07176L31.6283 14.2014C31.9089 14.4007 32.075 14.7233 32.075 15.0671C32.075 15.4111 31.9089 15.7336 31.6283 15.933C31.6283 15.933 24.1083 21.2799 21.6021 23.0624C21.419 23.1927 21.0241 23.4279 20.4996 23.1407ZM22.0489 9.99652V20.1377L29.1793 15.0671L22.0489 9.99652Z" fill="url(#paint1_linear_428_1442)"/>
<path d="M46.8224 28.6219C46.8224 32.2181 43.9071 35.1334 40.3108 35.1334C36.7146 35.1334 33.7993 32.2181 33.7993 28.6219C33.7993 25.0256 36.7146 22.1103 40.3108 22.1103C43.9071 22.1103 46.8224 25.0256 46.8224 28.6219Z" fill="white" stroke="#5046DB" stroke-width="1.288"/>
<path d="M40.3115 32.1998V25.7598" stroke="#5046DC" stroke-width="1.288" stroke-linecap="round"/>
<path d="M37.4482 27.1911L40.3105 25.0444L43.1727 27.1911" stroke="#5046DC" stroke-width="1.288" stroke-linecap="round"/>
<defs>
<linearGradient id="paint0_linear_428_1442" x1="26.0002" y1="0" x2="26.0002" y2="30.1341" gradientUnits="userSpaceOnUse">
<stop stop-color="#3D34BE"/>
<stop offset="1" stop-color="#5147DD"/>
</linearGradient>
<linearGradient id="paint1_linear_428_1442" x1="25.9994" y1="6.875" x2="25.9994" y2="23.2772" gradientUnits="userSpaceOnUse">
<stop stop-color="#3D34BE"/>
<stop offset="1" stop-color="#5147DD"/>
</linearGradient>
</defs>
</svg>
