<svg width="40" height="36" viewBox="0 0 40 36" fill="none" xmlns="http://www.w3.org/2000/svg">
<path d="M39.4138 0H6.99191C6.66832 0 6.40598 0.262265 6.40598 0.585937C6.40598 0.909609 6.66832 1.17187 6.99191 1.17187H38.8279V20.3877C38.1834 19.1766 37.2876 18.0948 36.1732 17.2144C35.9193 17.0137 35.5508 17.057 35.3502 17.3109C35.1496 17.5648 35.1928 17.9333 35.4467 18.1338C37.5954 19.8316 38.8279 22.3741 38.8279 25.1094C38.8279 30.0082 34.8423 33.9937 29.9435 33.9937C25.0446 33.9937 21.0591 30.0082 21.0591 25.1094C21.0591 20.2105 25.0446 16.225 29.9435 16.225C31.0807 16.225 32.1867 16.4365 33.2309 16.8535C33.5314 16.9735 33.8723 16.8273 33.9924 16.5267C34.1125 16.2262 33.9661 15.8852 33.6656 15.7652C32.4825 15.2927 31.2303 15.0531 29.9435 15.0531C26.6235 15.0531 23.6745 16.6708 21.8421 19.1588H10.8786V18.4675C10.8786 18.1438 10.6163 17.8816 10.2927 17.8816C9.9691 17.8816 9.70676 18.1438 9.70676 18.4675V19.1588H4.67285C4.34926 19.1588 4.08691 19.4211 4.08691 19.7448C4.08691 20.0684 4.34926 20.3307 4.67285 20.3307H9.70676V21.022C9.70676 21.3457 9.9691 21.608 10.2927 21.608C10.6163 21.608 10.8786 21.3457 10.8786 21.022V20.3307H21.0971C20.4135 21.5911 19.992 23.0131 19.9047 24.5234H6.99191C6.66832 24.5234 6.40598 24.7857 6.40598 25.1094C6.40598 25.433 6.66832 25.6953 6.99191 25.6953H19.9047C20.2093 30.9687 24.5952 35.1656 29.9435 35.1656C35.4886 35.1656 39.9997 30.6544 39.9997 25.1094V0.585937C39.9997 0.262344 39.7374 0 39.4138 0Z" fill="#2419CE"/>
<path d="M4.25781 24.5234H1.17188V1.17187H4.25781C4.58141 1.17187 4.84375 0.909609 4.84375 0.585937C4.84375 0.262265 4.58141 0 4.25781 0H0.585938C0.262344 0 0 0.262265 0 0.585937V25.1094C0 25.433 0.262344 25.6953 0.585938 25.6953H4.25781C4.58141 25.6953 4.84375 25.433 4.84375 25.1094C4.84375 24.7857 4.58141 24.5234 4.25781 24.5234Z" fill="#2419CE"/>
<path d="M16.8873 14.9671C17.1008 14.9671 17.3145 14.9129 17.5103 14.804L23.7349 11.3459C24.1417 11.1198 24.3945 10.6904 24.3944 10.225C24.3944 9.75965 24.1416 9.3302 23.7349 9.10434L17.5103 5.64613C17.1089 5.42301 16.633 5.42902 16.2374 5.66184C15.8417 5.89465 15.6055 6.30777 15.6055 6.76691V13.6832C15.6055 14.1422 15.8417 14.5553 16.2374 14.7882C16.4401 14.9074 16.6635 14.9671 16.8873 14.9671ZM16.7774 6.76699C16.7774 6.72519 16.7957 6.69316 16.8318 6.67191C16.8502 6.66105 16.8688 6.65566 16.8875 6.65566C16.9054 6.65566 16.9234 6.66059 16.9413 6.67051L23.1659 10.1288C23.2035 10.1497 23.2227 10.1821 23.2227 10.225C23.2227 10.268 23.2035 10.3005 23.1659 10.3214L16.9413 13.7796C16.9048 13.8 16.868 13.7995 16.8319 13.7782C16.7959 13.757 16.7776 13.725 16.7776 13.6832V6.76699H16.7774Z" fill="#2419CE"/>
<path d="M32.9368 23.5454C34.3043 23.5454 35.4168 22.4329 35.4168 21.0654C35.4168 19.6979 34.3043 18.5854 32.9368 18.5854C31.5694 18.5854 30.4568 19.6979 30.4568 21.0654C30.4568 21.2576 30.4796 21.4446 30.5211 21.6243L26.7813 23.5044C26.3261 22.9697 25.6487 22.6295 24.8931 22.6295C23.5257 22.6295 22.4131 23.742 22.4131 25.1095C22.4131 26.4769 23.5256 27.5894 24.8931 27.5894C25.6487 27.5894 26.3261 27.2494 26.7813 26.7147L30.5212 28.5947C30.4797 28.7745 30.4569 28.9614 30.4569 29.1536C30.4569 30.521 31.5694 31.6335 32.9369 31.6335C34.3044 31.6335 35.4169 30.521 35.4169 29.1536C35.4169 27.7861 34.3044 26.6736 32.9369 26.6736C32.1814 26.6736 31.504 27.0137 31.0488 27.5483L27.3089 25.6682C27.3504 25.4885 27.3732 25.3016 27.3732 25.1094C27.3732 24.9172 27.3504 24.7304 27.3089 24.5507L31.0489 22.6706C31.504 23.2054 32.1813 23.5454 32.9368 23.5454ZM32.9368 27.8455C33.6582 27.8455 34.245 28.4324 34.245 29.1537C34.245 29.8749 33.6582 30.4617 32.9368 30.4617C32.2156 30.4617 31.6287 29.8749 31.6287 29.1537C31.6287 28.4324 32.2156 27.8455 32.9368 27.8455ZM24.8931 26.4176C24.1718 26.4176 23.585 25.8308 23.585 25.1096C23.585 24.3883 24.1718 23.8015 24.8931 23.8015C25.6144 23.8015 26.2012 24.3883 26.2012 25.1096C26.2012 25.8308 25.6144 26.4176 24.8931 26.4176ZM32.9368 19.7573C33.6582 19.7573 34.245 20.3442 34.245 21.0654C34.245 21.7867 33.6582 22.3735 32.9368 22.3735C32.2156 22.3735 31.6287 21.7867 31.6287 21.0654C31.6287 20.3442 32.2156 19.7573 32.9368 19.7573Z" fill="#2419CE"/>
</svg>
