<svg width="34" height="34" viewBox="0 0 34 34" fill="none" xmlns="http://www.w3.org/2000/svg">
<path d="M20.1521 14.9529L11.6521 10.7029C11.4325 10.5966 11.1704 10.6037 10.965 10.7312C10.7525 10.8587 10.625 11.0854 10.625 11.3333V19.8333C10.625 20.0812 10.7525 20.3079 10.9579 20.4354C11.0712 20.5062 11.2058 20.5416 11.3333 20.5416C11.4396 20.5416 11.5529 20.5133 11.6521 20.4637L20.1521 16.2137C20.3929 16.1004 20.5416 15.8525 20.5416 15.5833C20.5416 15.3141 20.3929 15.0662 20.1521 14.9529ZM12.0417 18.6858V12.4808L18.2467 15.5833L12.0417 18.6858Z" fill="white"/>
<path d="M32.5833 24.0833H32.2291V22.3125C32.2291 21.0658 31.6412 19.9537 30.7204 19.2454C31.0108 18.0625 31.1666 16.83 31.1666 15.5833C31.1666 6.99124 24.1754 0 15.5833 0C6.99124 0 0 6.99124 0 15.5833C0 24.1754 6.99124 31.1666 15.5833 31.1666C18.0554 31.1666 20.4779 30.5787 22.6666 29.4595V32.5833C22.6666 33.3624 23.3041 33.9999 24.0833 33.9999H32.5833C33.3624 33.9999 33.9999 33.3624 33.9999 32.5833V25.5C33.9999 24.7208 33.3624 24.0833 32.5833 24.0833ZM30.8124 24.0833H25.8541V22.3125C25.8541 20.9454 26.9662 19.8333 28.3333 19.8333C29.7004 19.8333 30.8124 20.9454 30.8124 22.3125V24.0833ZM22.6666 25.5V27.8445C20.5133 29.0841 18.0766 29.7499 15.5833 29.7499C7.7704 29.7499 1.41666 23.3962 1.41666 15.5833C1.41666 7.7704 7.7704 1.41666 15.5833 1.41666C23.3962 1.41666 29.7499 7.7704 29.7499 15.5833C29.7499 16.6033 29.6366 17.6021 29.4312 18.5795C29.077 18.4733 28.7158 18.4166 28.3333 18.4166C26.187 18.4166 24.4375 20.1662 24.4375 22.3125V24.0833H24.0833C23.3041 24.0833 22.6666 24.7208 22.6666 25.5ZM24.0833 32.5833V25.5H25.1458H31.5208H32.5833V32.5833H24.0833Z" fill="white"/>
<path d="M28.3333 27.625C27.9437 27.625 27.625 27.9437 27.625 28.3333V29.75C27.625 30.1396 27.9437 30.4583 28.3333 30.4583C28.7229 30.4583 29.0417 30.1396 29.0417 29.75V28.3333C29.0417 27.9437 28.7229 27.625 28.3333 27.625Z" fill="white"/>
</svg>
